<svg xmlns="http://www.w3.org/2000/svg" xmlns:xlink="http://www.w3.org/1999/xlink" xmlns:a="http://ns.adobe.com/AdobeSVGViewerExtensions/3.0/" x="0px" y="0px" width="603px" height="255px" viewBox="-32.614 -18.019 603 255" xml:space="preserve"><defs/><path fill="#01509E" d="M115.932,37.921c0.785,0.673,1.621,0.962,2.323,1.503c1.645,1.271,3.184,3.39,3.278,6.148 c0.017,0.458-0.238,1.176-0.067,1.775c0.177,0.622,2.354,1.271,2.938,1.641c2.806,1.781,4.476,5.012,3.621,9.633 c0.771,0.53,1.664,0.571,2.459,0.888c2.723,1.084,4.486,3.219,5.124,6.49c0.182,0.931,0.579,1.892,0,2.869 c19.362-0.133,39.448-1.302,40.307,16.874c0.345,7.288-3.392,12.067-7.65,15.166c-1.577,1.146-3.411,2.162-5.603,3.006 c-0.617,0.238-1.796,0.565-1.845,0.957c-0.069,0.564,1.545,1.245,1.845,1.435c4.494,2.857,7.133,8.193,9.975,12.57 c1.641,2.527,3.321,5.318,5.191,7.721c1.874,2.406,4.064,4.707,7.721,5.191c0.37,0.902,0.079,2.65,0.067,3.826 c-3.486,0.211-7.908,0.07-12.022,0.068c-1.118,0-3.063,0.215-3.895-0.137c-0.692-0.293-1.314-1.604-1.708-2.186 c-0.53-0.787-1.059-1.557-1.57-2.324c0.661,1.395-0.422,3.213-0.342,4.305c0.066,0.914,1.022,1.826,1.299,2.869 c0.209,0.791,0.254,2.557,0.137,3.689c-0.055,0.523-0.397,1.031-0.41,1.57c-0.013,0.553,0.355,1.234,0.41,2.049 c0.056,0.836-0.164,1.738-0.068,2.254c0.158,0.855,0.876,1.502,1.298,2.186c0.819,1.33,1.309,3.467,1.299,5.535 c-0.006,1.014-0.395,1.832-0.479,2.938c-0.043,0.568,0.304,0.992,0.41,1.504c0.263,1.26,0.294,2.938-0.068,4.098 c-0.154,0.494-0.464,0.682-0.41,1.299c0.059,0.666,0.421,1.291,0.547,1.844c0.387,1.693,0.062,3.719-0.615,5.33 c-0.385,0.916-0.918,1.611-1.161,2.459c-0.584,2.039-1.104,3.377-2.391,4.713c-0.631,0.654-1.424,1.027-2.118,1.709 c-0.63,0.617-0.962,1.359-1.503,1.912c-1.033,1.057-2.615,2.061-4.167,2.664c-0.826,0.322-1.743,0.313-2.802,0.615 c-1.373,0.395-2.438,1.176-3.825,1.436c-1.412,0.264-3.08,0.283-4.714-0.068c-0.692-0.148-1.325-0.42-1.98-0.615 c-0.713-0.211-1.46-0.221-2.254-0.342c-1.354-0.207-2.659-0.736-4.1-1.092c-0.467,0.438-0.321,1.055-0.409,1.502 c-0.105,0.533-0.299,1.037-0.342,1.57c-0.048,0.594,0.061,1.244,0,1.982c-0.213,2.629-1.742,4.895-3.143,6.49 c-0.521,0.592-0.785,1.326-1.23,1.912c-1.783,2.352-4.869,4.32-8.197,4.51c-2.089,0.117-3.88,0.326-6.148,0.205 c-2.019-0.109-3.259-0.928-4.851-1.504c-1.583-0.572-3.064-0.926-4.509-1.846c-0.658-0.418-1.214-0.877-1.776-1.434 c-0.533-0.527-1.177-1.342-1.913-1.641c-0.766-0.309-1.826-0.439-2.665-0.889c-0.825-0.439-1.415-1.188-2.118-1.367 c-1.053-0.266-2.021-0.135-2.869-0.34c-1.628-0.396-2.945-1.186-4.099-2.188c-0.564-0.49-1.013-1.35-1.708-1.641 c-0.883-0.367-1.731-0.318-2.527-0.682c-1.42-0.646-2.56-1.709-3.483-2.869c-0.438-0.549-0.625-1.23-1.161-1.98 c-0.22-0.309-1.448-0.697-1.845-0.889c-1.575-0.758-2.908-1.734-3.895-3.416c-0.375-0.641-0.4-1.355-0.82-1.98 c-0.375-0.563-1.288-0.822-1.844-1.162c-1.782-1.09-3.271-2.584-4.031-4.852c-0.161-0.484-0.172-1.322-0.409-1.775 c-0.318-0.605-1.456-0.896-2.187-1.297c-2.595-1.424-4.442-3.873-4.782-7.516c-2.106-0.848-3.858-1.828-5.191-3.484 c-0.936-1.162-1.818-2.688-1.981-4.576c-0.052-0.602,0.225-1.389,0-2.119c-0.256-0.832-2.219-1.141-3.006-1.639 c-1.373-0.869-2.438-2.217-3.074-3.553c-0.383-0.805-0.599-1.65-0.751-2.527c-0.166-0.953-0.092-2.086-0.137-3.211 c-0.499-0.535-1.232-0.557-1.844-0.82c-1.212-0.523-2.104-1.334-2.938-2.391c-0.38-0.482-0.883-0.955-1.161-1.436 c-1.051-1.814-1.61-5.254-0.478-7.516c-1.747-0.814-3.593-1.42-4.919-2.801c-1.619-1.686-2.812-3.943-2.459-7.24 c0.057-0.539,0.344-1.416,0.205-1.914c-0.125-0.449-1.277-0.854-1.846-1.229c-0.636-0.422-1.305-0.984-1.64-1.366 c-1.25-1.425-2.321-3.349-2.186-6.559c0.024-0.604,0.272-1.96,0.067-2.459c-0.196-0.482-0.788-0.41-1.229-0.888 c-3.94-0.045-8.174-0.161-12.092,0c-0.057,0.013-0.068,0.069-0.138,0.068c-0.363,1.732-0.205,3.789-0.205,5.942 c0,1.965,0,4.065,0,6.148c0,4.844-0.569,10.967,2.187,12.844c0.702,0.477,1.733,0.846,2.665,1.092 c0.947,0.25,2.042,0.199,2.938,0.752c0.154,1.074,0.026,2.434,0.068,3.621c-4.101,0.428-8.602,0.137-13.048,0.137 c-2.205,0-4.436,0-6.627,0c-2.198,0-4.391,0.166-6.421-0.205c-0.037-0.756-0.457-2.686,0-3.484c0.29-0.508,1.473-0.625,2.391-0.887 c1.513-0.436,2.595-1.035,3.142-2.256c0.593-1.316,0.615-3.887,0.615-6.146c0-13.477,0-26.973,0-40.512 c0-3.579,0.066-6.954-2.323-8.129c-1.278-0.63-3.06-0.771-3.894-1.367c-0.133-1.007-0.247-2.616,0.068-3.621 c1.267-0.262,2.714-0.137,4.167-0.137c4.285,0,8.86-0.059,13.116-0.068c-0.008-0.979,0.447-2.202,0.273-3.211 c-0.124-0.718-0.794-1.19-1.025-1.913c-0.456-1.429-0.598-3.405-0.342-5.26c0.069-0.496,0.289-1.024,0.342-1.571 c0.124-1.269-0.3-2.48-0.342-3.689c-0.042-1.244-0.021-2.494,0.342-3.688c0.245-0.807,0.938-1.572,1.094-2.459 c0.128-0.73-0.12-1.567-0.068-2.254c0.122-1.64,1.034-2.68,0.546-4.577c-0.167-0.65-0.549-1.146-0.615-2.05 c-0.065-0.913-0.054-2.443,0.138-3.349c0.131-0.624,0.468-1.269,0.614-1.98c0.167-0.813,0.167-1.633,0.273-2.392 c0.142-1.008,0.553-2.03,0.819-2.731c0.27-0.708,0.632-1.356,1.024-1.913c0.431-0.61,1.077-0.964,1.436-1.503 c0.423-0.637,0.603-1.363,1.024-1.913c0.659-0.858,1.522-1.697,2.528-2.391c1.156-0.798,2.792-1.667,4.372-1.981 c1.86-0.371,3.731-0.497,5.807-0.546c2.273-0.055,3.763,0.391,5.261,1.093c1.322,0.62,2.573,1.642,4.51,1.64 c0.456-1.077,0.485-2.093,0.888-3.143c0.372-0.971,1.059-1.842,1.298-2.733c0.302-1.121,0.346-2.025,0.683-2.869 c0.999-2.501,2.956-3.906,4.92-5.602c2.016-1.742,3.475-3.289,6.421-4.099c0.905-0.249,1.889-0.288,2.938-0.546 c1.264-0.312,2.419-1.154,3.826-1.229c1.205-0.065,2.477,0.409,3.689,0.683c1.262,0.285,2.631,0.292,3.758,0.546 c1.642,0.37,3.331,1.062,4.509,1.98c0.393,0.307,0.648,0.785,1.093,1.024c1.063,0.573,2.208,0.789,3.144,1.366 c0.887,0.548,1.671,1.768,2.596,2.118c2.157,0.816,3.418,1.482,4.85,2.938c0.932,0.945,1.607,2.18,2.255,3.552 c0.178,0.377,0.36,0.974,0.615,1.298c0.349,0.442,1.446,0.684,2.049,1.093c0.708,0.481,1.034,1.057,1.571,1.366 c0.667,0.384,1.455,0.502,2.118,0.82c1.361,0.653,2.247,1.524,3.143,2.733c0.491,0.662,0.976,1.517,1.708,1.844 c0.894,0.399,1.604,0.569,2.254,0.957c1.584,0.944,2.921,2.377,3.553,4.44c0.326,1.068,0.331,1.283,1.366,1.776 C113.59,31.899,115.685,33.863,115.932,37.921z M76.309,12.371c0.164-0.695-0.029-1.862-0.205-2.459 c-0.29-0.985-0.84-2.14-1.435-3.074c-0.91-1.428-2.044-2.408-3.484-3.211c-1.328-0.74-2.742-1.531-4.918-1.298 c-0.14,0.02-0.134,0.185-0.273,0.205c0.734,0.688,1.657,0.77,2.392,1.162c1.787,0.955,3.5,2.872,4.234,4.714 c0.178,0.443,0.199,0.875,0.41,1.435c0.104,0.276,0.396,0.507,0.479,0.82c0.225,0.84-0.174,2.082,0.272,2.938 C74.882,13.722,76.109,13.218,76.309,12.371z M72.552,13.942c0.182-0.475,0.083-1.558,0-2.255c-0.247-2.063-1.446-4.235-2.392-5.328 c-2.467-2.855-7.367-3.904-11.135-2.255c-0.785,0.344-1.854,0.728-2.118,1.64c1.104-0.019,1.866-0.363,3.006-0.273 c2.507,0.198,5.157,1.601,6.626,2.801c2.231,1.824,2.89,4.755,3.554,7.651C70.728,15.354,72.255,14.717,72.552,13.942z M73.85,3.49 c-0.069,0-0.082,0.055-0.137,0.068c0.029,0.796,1.025,1.211,1.503,1.776c1.382,1.638,1.93,3.917,2.322,6.49 c0.896,0.042,2.107-0.161,2.869-0.479C80.109,7.113,77.404,4.696,73.85,3.49z M68.863,14.83c-0.079-0.312-0.326-0.577-0.41-0.888 c-0.331-1.233-0.452-2.1-1.093-3.074c-1.09-1.658-2.631-3.036-4.782-3.689c-1.069-0.325-2.31-0.786-3.483-0.751 c-0.707,0.021-1.5,0.343-2.254,0.479c-3.607,0.646-5.602,3.241-6.832,6.147c0.578,0.146,1.002-0.347,1.365-0.615 c1.829-1.345,4.409-2.042,7.856-1.708c2.651,0.256,5.229,2.14,6.49,3.757c1.216,1.559,1.685,3.387,2.527,5.124 C68.604,18.112,69.341,16.726,68.863,14.83z M81.979,11.551c0.703,0.368,1.934,0.207,2.801,0.41 c-0.417-2.542-2.128-3.792-4.099-4.782C80.894,8.584,81.755,9.93,81.979,11.551z M86.078,10.595c-0.068,0-0.082,0.056-0.137,0.068 c0.302,1.838,1.83,2.451,3.484,2.938C88.654,12.254,87.642,11.149,86.078,10.595z M63.944,14.079 c-1.722-1.624-4.293-2.721-7.65-2.459c-1.845,0.143-4.258,1.274-5.534,2.459c-1.596,1.48-3.042,3.944-3.074,6.899 c-0.011,0.948,0.01,2.621,0.615,2.665c0.433,0.031,0.806-0.963,1.162-1.366c0.813-0.922,3.039-2.536,4.509-2.938 c3.827-1.047,7.646,0.057,9.974,1.708c0.532,0.378,1.088,0.728,1.436,1.162c0.415,0.519,0.281,1.22,1.229,1.435 C67.81,19.72,66.093,16.104,63.944,14.079z M85.259,14.352c-1.496-1.751-6-2.717-7.993-0.82c0.76,0.396,1.431,0.577,2.186,1.024 c0.542,0.321,1.358,1.248,1.981,1.298c0.663,0.054,1.467-0.439,2.323-0.478c0.669-0.03,1.238,0.115,2.049,0.068 C85.72,15.089,85.513,14.649,85.259,14.352z M85.873,13.327c-0.004,0.087-0.087,0.095-0.067,0.205 c0.278,0.38,0.672,0.693,1.093,1.229c0.339,0.433,0.55,1.221,0.888,1.435c0.57,0.359,1.585,0.105,2.254-0.136 C89.268,14.85,87.724,13.459,85.873,13.327z M71.664,15.923c-1.165,0.985-2.222,2.592-2.117,4.236 c1.689-0.275,3.349-0.137,4.576,0.341c0.554,0.215,1.29,0.708,1.708,0.683c1.016-0.06,1.587-1.601,2.118-2.323 c0.708-0.96,1.409-1.63,2.187-2.323C78.494,13.866,73.826,14.094,71.664,15.923z M90.724,23.233c0.298-4.157-3-7.264-6.968-6.9 c-2.613,0.239-4.422,1.774-5.261,3.963c5.406-1.884,10.268,1.453,10.793,6.353C90.341,25.942,90.635,24.478,90.724,23.233z  M92.227,28.494c0.501,0.194,0.78,0.669,1.366,0.615c0.727-0.068,1.458-1.282,1.913-2.05c0.563-0.951,0.945-1.874,1.023-2.938 c0.308-4.141-2.854-6.71-6.49-6.763c-0.042,0.004-0.08,0.01-0.067,0.068c0.053,0.015,0.079,0.057,0.067,0.137 c0.175,1.042,0.823,1.593,1.161,2.323c0.858,1.851,0.875,4.304-0.067,6.148c-0.341,0.667-0.91,0.921-1.025,1.845 C90.684,28.339,91.475,28.203,92.227,28.494z M42.015,30.885c0.366-3.017-0.479-5.606-2.049-7.515 c-1.896-2.301-4.435-3.866-8.608-3.484c-1.985,0.183-3.708,1.062-4.782,2.323c2.246-0.484,5.083-0.75,7.242,0 c1.386,0.482,3.382,1.633,4.304,2.528c1.694,1.643,2.511,4.01,3.007,6.626C41.545,31.326,41.754,31.079,42.015,30.885z  M56.293,30.133c3.108-0.508,6.225-0.047,8.471,1.436c0.395,0.26,0.958,1.265,1.503,1.161c0.508-0.097,0.735-1.552,0.82-2.665 c0.213-2.817-0.869-4.926-2.188-6.626c-1.647-2.129-4.443-3.871-8.334-3.553c-5.112,0.418-9.513,4.926-8.813,10.794 c0.181,1.517,0.849,3.207,1.708,4.031C51.149,32.799,53.281,30.625,56.293,30.133z M45.567,28.425 c-0.126-1.63-0.987-3.239-1.64-4.304c-0.812-1.322-1.675-2.327-2.87-3.074c-0.776-0.485-2.028-1.28-2.938-1.024 c2.955,2.168,5.323,4.925,5.329,10.042C44.789,30.16,45.686,29.975,45.567,28.425z M97.35,20.91 c-0.035,0.964,0.273,1.204,0.342,1.845c0.268,2.526-0.561,4.262-1.571,5.602c-0.381,0.505-1.252,1.255-1.229,1.708 c0.047,0.963,1.285,0.828,2.118,1.093c0.484,0.155,0.759,0.708,1.367,0.683c0.899-0.036,1.695-1.332,2.117-2.049 c1.998-3.403,0.036-8.222-3.073-9.018c-0.004-0.042-0.011-0.081-0.068-0.068C97.35,20.774,97.35,20.842,97.35,20.91z M80.955,20.774 c-4.033,0.407-6.938,4.35-5.328,8.813c0.742-0.325,0.945-1.065,1.57-1.572c0.706-0.571,2.231-1.217,3.144-1.435 c1.894-0.452,4.367,0.111,5.875,1.093c0.529,0.345,0.924,1.044,1.57,1.161C89.257,24.69,85.432,20.322,80.955,20.774z M68.111,22.14 c-0.602,1.795-0.318,3.721,0.41,5.192c0.723,0.154,1.443-0.108,2.323-0.205c0.759-0.083,1.903,0.129,2.391-0.273 c0.274-0.227,0.291-1.005,0.341-1.435c0.19-1.626,0.858-2.362,1.436-3.348C73.459,20.693,69.577,20.623,68.111,22.14z  M37.779,26.171c-1.637-1.997-5.208-4.148-9.223-3.279c-3.168,0.686-5.138,2.71-6.627,5.056c-0.361,0.569-0.975,1.161-0.546,1.844 c0.589-0.238,0.987-0.939,1.503-1.366c2.18-1.81,5.574-2.458,8.745-1.913c2.866,0.493,5.369,2.179,6.694,4.373 c0.536,0.886,0.441,1.686,1.436,2.322C40.082,30.409,39.261,27.978,37.779,26.171z M46.319,25.419 c0.285-0.011,0.604-0.932,0.546-1.23c-0.119-0.626-1.358-1.394-1.98-1.229C44.839,23.152,46.03,25.431,46.319,25.419z  M101.039,34.505c0.508,0.877,0.763,1.944,1.366,2.391c1.388,1.025,2.701-0.011,3.484-0.82c0.961-0.993,1.855-2.964,1.845-4.577 c-0.021-2.819-2.686-5.82-4.851-6.012c-0.122-0.011-0.237,0.062-0.273,0.137c-0.271,0.607-0.081,1.346-0.137,1.981 c-0.2,2.298-1.552,3.603-2.664,5.055C100.137,33.206,100.614,33.768,101.039,34.505z M37.096,31.021 c-1.595-2.116-3.753-3.494-6.968-3.689c-3.372-0.204-5.853,1.016-7.651,2.801c-1.368,1.357-2.632,3.479-2.801,5.603 c-0.103,1.272-0.275,3.153,0.684,3.962c1.941-2.649,4.476-5.132,8.744-5.397c3.458-0.215,6.145,1.188,7.925,2.733 c0.636,0.552,1.127,1.233,1.776,1.708C39.432,35.497,38.45,32.817,37.096,31.021z M88.538,33.48 c-0.257-3.923-3.641-6.565-8.062-5.943c-0.068,0.009-0.174,0.034-0.273,0.068c-2.503,0.866-5.148,3.517-4.781,7.241 c0.058,0.588,0.831,2.688,1.435,2.665c0.381-0.014,0.739-0.847,1.024-1.093c0.614-0.529,1.542-1.111,2.322-1.435 c1.968-0.815,4.542-0.567,6.218,0.205c0.548,0.252,0.97,0.831,1.64,0.683C88.567,35.118,88.588,34.255,88.538,33.48z M68.863,28.63 c0.074,2.785-1.628,6.016,0.41,7.651c1.159-0.595,2.815-0.691,4.372-0.888c0.209-0.434,0.025-0.834,0-1.298 c-0.053-1.001,0.294-1.974,0.342-2.938c0.053-1.081-0.366-2.054-0.615-2.938C72.01,27.837,69.761,27.916,68.863,28.63z  M89.562,29.177c-0.338-0.013-0.47,0.205-0.683,0.41c-0.098,0.67,0.323,1.236,0.479,1.913c0.175,0.765,0.037,1.601,0.273,2.186 c0.176,0.435,1.771,0.784,2.322,1.025c0.63,0.275,1.472,0.675,1.981,1.093c0.775,0.634,0.813,1.155,1.708,1.641 C96.875,32.866,93.518,29.322,89.562,29.177z M68.316,39.697c-0.204-2.423-1.078-3.758-2.186-5.26 c-1.516-2.053-4.375-3.738-7.721-3.552c-5.214,0.289-9.442,4.345-9.428,9.837c0.006,1.959,0.746,3.963,1.708,5.329 c0.233,0.332,0.929,1.243,1.229,1.229c0.493-0.022,1.048-1.34,1.366-1.708c2.248-2.603,7.472-4.49,11.75-2.732 c0.873,0.358,1.619,1.078,2.665,1.093C68.198,42.605,68.423,40.967,68.316,39.697z M42.356,32.046 c-0.487,0.38-1.368,1.206-1.708,1.845c-0.364,0.685-0.91,2.096-0.342,2.527c0.848-0.239,1.562-0.865,2.528-1.229 c0.993-0.375,2.1-0.467,3.483-0.478c-0.287-1.262-0.591-2.506-0.957-3.689C44.235,30.896,43.147,31.428,42.356,32.046z  M100.971,39.083c0.392-3.702-1.797-6.013-4.167-6.832c-0.086,0.028-0.141,0.088-0.137,0.205c-0.125,1.027,0.542,1.781,0.614,2.801 c0.115,1.595-0.987,2.958-1.024,4.304c-0.029,1.064,0.274,1.938,0.137,2.869c-0.087,0.584-0.472,0.983-0.341,1.641 C98.717,44.029,100.719,41.47,100.971,39.083z M107.53,40.517c0.464,0.82,0.59,2.588,1.229,3.074 c0.359,0.274,1.212,0.524,1.64,0.479c0.817-0.088,2.105-1.531,2.596-2.323c0.264-0.423,0.383-0.861,0.479-1.435 c0.67-0.504,0.581-2.253,0.342-3.279c-0.524-2.245-3-4.637-4.646-4.714c-0.123-0.006-0.236,0.057-0.273,0.137 c-0.391,2.684-1.879,4.27-3.416,5.807C106.194,38.941,106.874,39.361,107.53,40.517z M90.724,35.12 c-0.188-0.052-0.48-0.139-0.683-0.137c-0.625,0.006-0.947,1.396-0.82,2.05c0.1,0.515,0.68,0.909,0.888,1.503 c0.393,1.121,0.281,2.236,0.615,3.484c1.554,0.313,2.793,0.941,4.304,1.298C96.59,39.598,93.703,35.957,90.724,35.12z M39.282,42.43 c-1.343-4.026-4.778-7.398-10.042-7.036c-5.577,0.384-9.651,5.063-8.95,11.34c0.021,0.188,0.088,0.43,0.138,0.615 c0.294,1.093,0.823,2.297,1.64,3.074c0.991-1.704,2.005-2.914,3.621-4.099c0.926-0.679,2.098-1.363,3.279-1.571 c1.437-0.254,4.008-0.252,5.807,0c1.982,0.277,2.949,1.572,4.509,2.391C39.571,45.65,39.713,43.724,39.282,42.43z M81.57,44.958 c1.478-0.916,4.007-1.395,5.808-0.82c0.378,0.121,1.037,0.568,1.365,0.479c0.93-0.255,0.923-3.916,0.546-4.919 c-0.945-2.519-3.375-4.524-6.763-4.235c-2.856,0.243-5.377,2.37-5.943,4.918c-0.632,2.845,0.745,5.233,2.597,6.763 C80.191,46.385,80.615,45.549,81.57,44.958z M44.132,35.872c-1.955,0.326-4.581,2.172-4.44,3.894 c0.04,0.489,0.422,0.885,0.615,1.366c0.257,0.643,0.273,1.313,0.684,1.845c0.823-0.304,1.547-0.798,2.527-1.025 c0.977-0.226,2.042-0.209,3.143-0.41c0.209-1.704,0.24-3.586,0.751-4.987C47.271,35.561,45.203,35.693,44.132,35.872z  M73.918,36.555c-0.32-0.136-0.776-0.032-1.162,0c-1.053,0.088-2.809,0.071-3.144,1.093c0.243,1.563,0.646,4.425,0.138,6.08 c-0.228,0.738-0.809,1.456,0,1.913c0.573,0.008,0.86-0.494,1.298-0.751c1.071-0.63,2.327-0.868,3.688-1.229 c-0.052-1.724-0.152-3.393,0.547-4.851C74.701,38.19,74.778,36.921,73.918,36.555z M98.17,47.827 c0.147,0.549,0.035,1.571,0.342,1.981c0.228,0.306,0.971,0.35,1.298,0.41c2.642,0.481,4.706-0.468,6.08-1.98 c3.027-3.333,0.862-10.126-3.621-10.179c-0.396,0.665-0.237,1.56-0.41,2.118c-0.743,2.393-2.585,4.255-4.851,5.055 C97.305,46.1,97.903,46.836,98.17,47.827z M116.069,51.857c0.613-0.067,1.375-1.013,1.913-1.64c0.677-0.79,0.854-1.64,1.162-2.459 c0.217-0.581,0.54-1.238,0.41-2.118c-0.096-0.646-0.563-1.978-1.025-2.731c-0.687-1.118-2.219-2.486-3.21-2.596 c-0.149-0.017-0.202,0.08-0.272,0.137c-0.867,0.684-0.861,2.141-1.845,3.143c-0.31,0.315-1.017,0.75-1.298,1.025 c-0.637,0.623,0.15,1.146,0.546,1.708c0.936,1.324,1.273,2.703,1.503,4.509C114.808,51.108,115.125,51.961,116.069,51.857z  M47.275,44.479c-0.37-1.216-0.283-1.953-1.776-1.845c-1.224,0.089-3.713,0.662-4.235,1.776c-0.252,0.538-0.483,3.737-0.341,4.372 c0.117,0.529,1.086,2.381,1.57,2.459c0.61,0.099,1.205-0.583,1.776-0.751c1.555-0.46,3.722-0.021,5.329,0 c0.176-0.416,0.248-0.938,0.205-1.571C48.788,47.537,47.852,46.375,47.275,44.479z M54.994,45.436 c-1.687,1.479-3.14,3.667-3.347,6.559c-0.227,3.158,0.964,5.36,2.391,7.105c0.193,0.236,0.747,1.254,1.299,1.229 c0.614-0.027,0.974-1.152,1.229-1.435c1.277-1.412,3.652-3.108,6.285-3.347c1.623-0.147,3.622-0.16,5.396,0.341 c0.522,0.147,1.146,0.82,1.641,0.684c0.596-0.166,0.701-1.086,0.819-1.641c0.723-3.361-0.396-6.42-2.05-8.402 c-1.663-1.995-5.009-3.827-8.539-3.348C58.39,43.416,56.219,44.362,54.994,45.436z M97.282,48.852 c-0.393-2.801-2.896-5.187-5.737-5.397c-0.889-0.065-1.316,0.257-1.367,0.888c-0.092,1.168,1.253,1.911,1.775,2.664 c0.729,1.048,0.862,1.929,1.23,3.211c0.516,0.217,1.213,0.069,1.844,0.137c0.745,0.079,1.377,0.554,1.981,0.41 C97.359,50.263,97.372,49.495,97.282,48.852z M70.844,46.529c-0.162,0.82,0.771,1.81,1.093,2.596 c0.739,1.812,0.682,3.958,0.751,6.354c0.538-0.296,0.932-0.759,1.503-1.093c0.962-0.563,2.19-0.619,3.074-1.298 c0.076-0.883-0.176-1.731-0.068-2.801c0.081-0.796,0.515-1.469,0.41-2.049c-0.109-0.606-1.017-1.252-1.366-1.708 c-0.479-0.626-0.693-1.359-1.298-1.776C73.561,44.813,71.038,45.544,70.844,46.529z M108.418,44.958 c-0.805,4.047-3.346,6.357-7.993,6.559c0.161,4.482,6.319,6.815,9.974,3.962c1.479-1.155,2.5-3.566,2.323-5.602 c-0.206-2.355-1.923-4.659-4.1-5.124C108.524,44.791,108.456,44.859,108.418,44.958z M92.09,51.243 c-0.125-4.022-4.25-7.61-8.677-6.012c-2.03,0.734-4.058,2.8-4.304,5.124c-0.262,2.482,0.372,3.891,1.366,5.192 c0.317,0.415,1.028,1.301,1.571,1.229c0.36-0.048,0.757-0.852,1.093-1.229c1.093-1.228,2.466-2.312,4.509-2.528 c1.417-0.15,2.517,0.27,4.03,0.205C92.046,52.613,92.11,51.874,92.09,51.243z M41.468,54.795c-0.119-4.812-3.849-9.059-8.472-9.427 c-4.133-0.33-7.26,1.366-9.018,3.894c-0.596,0.857-1.313,2.077-1.571,3.006c-1.188,4.274,0.688,8.009,3.074,10.042 c0.807-0.545,1.166-1.562,1.913-2.322c1.838-1.873,5.545-3.751,9.77-2.938c1.328,0.255,2.149,1.08,3.621,1.298 C41.39,57.273,41.496,55.943,41.468,54.795z M18.855,49.671c-0.506,0.52-1.02,5.12,0.068,5.329c0.393,0.075,1.128-0.709,1.365-0.956 c0.381-0.394,0.864-0.998,0.82-1.571c-0.06-0.786-1.588-2.529-1.775-3.006C19.241,49.588,18.963,49.562,18.855,49.671z  M119.075,57.869c-0.017,0.612-0.224,1.376,0.068,1.845c0.283,0.453,1.279,0.515,1.776,0.751c0.722,0.344,1.316,1.245,2.05,1.229 c0.694-0.015,1.664-1.12,1.98-1.571c2.952-4.194,0.178-10.012-4.714-10.247c-0.09-0.004-0.201,0.03-0.272,0.068 c-1.044,0.556-1.469,2.156-2.802,2.801C118.192,54.142,119.141,55.414,119.075,57.869z M49.256,53.224 c0-0.445,0.181-1.133-0.068-1.503c-0.383-0.565-2.332-0.57-3.279-0.478c-1.399,0.137-2.522,0.781-3.278,1.435 c0.435,1.106,0.698,3.363,0.272,4.919c-0.166,0.606-0.521,1.028-0.478,1.503c0.043,0.483,0.696,1.324,1.298,1.298 c0.446-0.019,0.884-0.648,1.298-0.888c1.391-0.805,3.202-1.032,5.465-1.023C49.919,57.042,49.256,54.917,49.256,53.224z  M93.32,51.379c-0.316,0.688-0.434,1.748-0.136,2.391c0.378,0.817,1.531,1.354,2.118,2.254c0.688,1.055,0.924,2.207,1.298,3.484 c0.92,0.209,2.182,0.188,3.006,0.137C101.476,55.259,97.39,50.743,93.32,51.379z M98.444,51.652 c0.292-0.009,0.318-0.277,0.068-0.341C98.411,51.472,98.368,51.438,98.444,51.652z M111.97,64.291 c3.537-0.05,6.823-3.57,6.012-7.651c-0.424-2.131-1.931-3.92-3.894-4.509c-0.779-0.234-0.807,1.248-1.094,1.844 c-1.113,2.311-4.089,3.901-7.241,3.894C105.464,61.539,108.356,64.343,111.97,64.291z M95.369,59.44 c-0.435-2.979-3.146-5.666-6.899-5.465c-3.294,0.177-6.426,3.433-6.148,6.695c0.093,1.093,0.566,2.555,1.229,3.484 c0.372,0.521,1.919,2.189,2.731,2.118c0.528-0.046,1.216-1.183,1.776-1.639c1.605-1.309,3.799-1.743,6.626-1.64 C95.471,62.075,95.529,60.533,95.369,59.44z M80.75,60.943c0.002-0.827,0.188-1.69,0.067-2.527c-0.095-0.651-1.25-1.213-1.775-1.845 c-0.438-0.524-0.725-1.791-1.299-2.049c-0.672-0.302-1.978,0.249-2.596,0.546c-0.795,0.383-2.783,1.684-2.733,2.731 c0.02,0.378,0.494,0.733,0.82,1.093c0.908,1.003,1.796,2.374,2.187,3.689c0.413,1.395,0.215,2.439,0.819,3.826 c1.027-0.669,2.063-1.717,3.553-2.187c0.446-0.141,0.938-0.108,1.365-0.41C80.985,62.798,80.746,61.953,80.75,60.943z  M19.197,56.981c-0.207,0.39-0.507,0.664-0.615,0.956c-0.271,0.731-0.389,1.896-0.342,2.733c0.066,1.163,0.623,3.384,1.366,3.484 c0.764,0.103,1.08-1.044,1.64-1.503c0.371-0.304,0.908-0.448,1.025-0.888c0.158-0.595-0.542-1.566-0.888-2.391 c-0.487-1.158-0.692-2.613-0.751-3.894c-0.004-0.042-0.011-0.081-0.068-0.068C19.653,55.66,19.623,56.176,19.197,56.981z  M74.191,64.633c-0.234-2.581-1.421-4.257-2.869-5.67c-1.769-1.727-4.462-2.733-7.445-2.528c-2.577,0.178-4.494,1.186-6.148,2.869 c-1.516,1.542-2.643,3.587-2.801,5.944c-0.083,1.246,0.146,3.099,0.479,4.099c0.148,0.447,0.589,0.947,0.889,1.436 c1.015,1.653,2.071,3.077,4.029,3.688c2.168-3.334,5.965-6.579,11.819-5.602c0.465,0.078,0.794,0.317,1.229,0.546 C74.331,68.39,74.341,66.278,74.191,64.633z M101.45,56.708c-0.278,0.264-0.683,2.998-0.614,3.279 c0.101,0.415,0.618,0.464,1.024,0.751c0.349,0.246,0.532,0.596,0.888,0.683c0.5,0.122,1.131-0.045,1.436-0.342 c-0.065-0.999-0.121-2.237-0.205-3.006C103.234,57.519,102.48,56.976,101.45,56.708z M41.4,60.192 c-2.722-2.362-7.261-2.976-10.726-1.298c-3.257,1.577-5.707,5.181-5.192,10.042c6.331,0,12.661,0,18.992,0 C45.123,65.097,43.581,62.085,41.4,60.192z M52.877,63.745c0.142-0.469,0.566-0.844,0.546-1.298 c-0.026-0.586-0.668-1.042-1.094-1.503c-0.919-0.996-1.504-1.564-3.278-1.503c-1.897,0.065-3.907,0.971-4.714,1.981 c1.121,2.051,2.321,4.38,1.775,7.515c2.34,0.372,3.056-0.591,4.577-0.957c0.666-0.16,1.213-0.025,1.913-0.273 C52.968,66.396,52.534,64.877,52.877,63.745z M103.636,69.278c0.595-0.379,0.632-2.193,0.546-3.211 c-0.271-3.218-3.685-5.86-6.968-5.465c-0.808,0.097-0.871,1.345-0.957,2.391c0.449,0.721,1.29,0.864,1.913,1.366 c1.414,1.138,2.229,2.776,2.801,4.782C101.763,69.212,102.926,69.729,103.636,69.278z M111.56,65.316 c-1.668,5.317,4.042,9.641,8.813,7.241c0.141-0.88,0.374-2.209,0.273-3.552c0.734-0.245,1.861-0.097,2.801-0.137 c1.164-4.219-1.363-7.265-4.646-8.129C117.349,63.226,115.223,65.039,111.56,65.316z M126.931,61.148 c-1.098,0.079-3.184,1.124-3.21,1.913c-0.01,0.285,0.551,0.979,0.751,1.503c0.462,1.206,0.566,3.034,0.137,4.304 c2.96,0,5.92,0,8.881,0C134.405,64.295,131.001,60.855,126.931,61.148z M106.368,63.676c-0.692-0.658-1.448-2.278-2.322-1.025 c0.716,1.405,1.301,2.967,1.093,5.26c-0.063,0.7-0.375,1.177-0.137,1.708c0.12,0.271,1.6,1.207,2.459,1.435 c0.939,0.25,2.868-0.158,2.938-0.82c0.03-0.285-0.437-0.688-0.546-1.024c-0.356-1.094,0.033-2.614-0.137-3.758 C108.685,64.968,107.398,64.653,106.368,63.676z M24.116,65.589c0.12-0.456,0.483-0.873,0.41-1.366 c-0.069-0.468-0.991-1.464-1.435-1.435c-1.646,0.107-3.729,3.841-3.416,6.148c1.435,0,2.869,0,4.304,0 C23.893,67.715,23.841,66.637,24.116,65.589z M92.159,63.949c-2.823,0.285-4.521,2.114-5.533,4.373 c5.111-0.288,9.146,0.917,13.185,1.913C99.289,66.401,96.684,63.493,92.159,63.949z M82.526,68.322 c0.756-0.07,2.114-0.023,2.254-0.479c0.162-0.521-0.993-1.25-1.366-1.571c-0.768-0.662-1.277-1.487-2.254-1.366 c-2.474,0.308-4.817,2.585-5.396,4.714C77.982,69.221,80.026,68.552,82.526,68.322z M52.262,69.073 c0.157,3.6,0.023,7.49,0.067,11.204c1.05-0.84,2.218-1.54,3.895-1.913c1.135-0.252,2.407-0.312,2.186-1.64 c-0.059-0.355-0.473-0.552-0.819-0.82c-1.631-1.256-2.849-2.588-3.757-4.509c-0.488-1.03-0.448-3.168-2.46-2.459 C51.657,68.995,52.022,68.971,52.262,69.073z M67.428,69.961c-2.897,0.935-4.967,2.851-6.217,5.397 c-0.807,1.642-1.467,3.865-0.684,5.328c1.454-2.446,3.429-4.35,5.603-6.08c2.185-1.74,4.656-3.087,7.378-4.304 C71.603,69.831,69.25,69.374,67.428,69.961z M102.406,70.303c-0.779-0.046-1.272-0.029-1.435,0.547 c2.713,0.976,4.733,2.843,6.832,4.304c0.31,0.216,0.683,0.559,0.819,0.478C107.99,72.881,105.578,70.492,102.406,70.303z  M113.2,73.514c-0.435-0.247-1.93-2.013-2.392-1.845c-0.605,0.222-1.614,0.512-2.254,0.888c0.437,1.408,1.232,2.456,1.093,4.441 c1.413,1.502,2.498,3.331,3.757,4.987c0.877-0.434,2.083-0.326,2.528-1.093c0.381-0.659-0.049-1.575-0.137-2.459 c-0.141-1.412,0.459-2.852,0.478-3.826C115.177,74.176,114.32,74.15,113.2,73.514z M119.895,73.855 c-0.608,0.208-1.353,0.248-1.708,0.546c-0.31,0.26-0.407,0.797-0.546,1.161c-0.356,0.925-0.53,1.608-0.41,2.733 c0.2,1.879,1.738,4.161,3.348,4.851c0.574,0.246,1.676,0.715,2.118,0.819c1.887,0.447,3.02-0.593,4.44-1.298 c-0.254-3.124,0.29-6.337-1.366-7.993c-1.005-1.005-2.579-1.088-4.167-1.639C121.11,73.315,120.562,73.626,119.895,73.855z  M79.998,75.017c-9.704,3.328-12.832,15.257-12.229,28.215c0.364,7.813,1.28,13.979,4.167,19.128 c2.65,4.725,7.489,8.674,14.961,8.334c6.875-0.313,11.464-3.798,14.073-9.154c3.671-7.537,4.216-20.637,2.186-30.4 c-0.695-3.348-1.762-6.005-3.142-8.54c-2.62-4.81-7.467-8.8-14.894-8.403C83.401,74.289,81.508,74.499,79.998,75.017z  M26.165,81.575c0.728-0.734,2.073-1.235,2.459-1.981c0.168-0.324,0.458-1.682,0.41-1.98c-0.077-0.483-0.934-1.033-1.365-1.436 c-0.379-0.351-0.943-1.22-1.436-1.366c-1.179-0.351-2.676,0.264-3.894,0c-0.986,3.437,0.59,6.555,2.869,7.925 C25.614,82.433,25.754,81.99,26.165,81.575z M29.991,75.631c0.315-0.163,0.528-0.428,0.615-0.82 c-0.615,0.045-1.411-0.09-1.913,0.068C29.125,75.131,29.419,75.52,29.991,75.631z M31.699,75.017 c-2.186,2.919-2.049,7.965-0.067,10.862c0.948,1.389,2.388,2.64,3.894,3.143c0.448-0.319,0.435-0.875,0.684-1.298 c1.6-2.72,4.325-4.545,8.061-5.124c-0.647-2.169-1.61-4.218-3.074-5.67c-2.026-2.011-5.179-2.196-9.291-2.118 C31.806,74.85,31.737,74.918,31.699,75.017z M161.499,94.691c1.38-2.805,1.944-7.247,0.957-10.999 c-0.869-3.307-2.816-5.551-5.807-6.968c-3.659-1.734-9.371-2.208-14.551-1.708c1.252,1.723,1.812,5.583,0.751,7.993 c0.867,0.808,1.954,0.938,2.938,1.571c2.208,1.424,4.019,4.486,3.689,7.856c-0.108,1.108-0.629,1.91-0.683,3.074 c2.563,1.059,4.671,2.57,5.807,5.056C157.65,99.354,160.081,97.577,161.499,94.691z M18.787,75.085 c-0.212,0.557-0.189,1.691-0.272,2.801c-0.076,1.014-0.108,2.093-0.068,2.938c0.231,4.896,0.068,10.096,0.068,15.098 c0,1.033-0.149,2.537,0.067,2.869c0.466,0.711,3.127,0.342,3.963,0.342c1.674,0,2.853-0.051,4.304-0.069 c-0.277-1.534-0.068-3.091,0.342-4.304c-1.991-2.287-4.283-4.176-4.031-8.471c0.036-0.606,0.319-1.313,0.205-1.913 c-0.119-0.63-1.043-1.223-1.57-1.913c-0.497-0.649-1.039-1.458-1.299-2.186c-0.425-1.193-0.854-2.295-0.751-3.689 c0.04-0.543,0.344-0.926,0.343-1.571c-0.246-0.142-0.739-0.035-1.094-0.068C18.911,74.981,18.837,75.021,18.787,75.085z  M141.278,80.55c0.275-2.08-0.771-4.333-1.775-5.26c-0.005-0.042-0.011-0.081-0.068-0.068c-0.446,0.424-0.241,1.224-0.205,2.049 c0.098,2.214-0.228,5.281,0.137,6.968C140.547,83.713,141.086,81.997,141.278,80.55z M54.243,80.208 c-0.698,0.436-1.746,1.156-1.913,1.845c-0.201,0.831,0.146,1.585,0,2.596c1.639,1.369,3.036,2.976,3.826,5.192 c0.652-2.308,1.657-4.263,2.459-6.422c-0.565-1.027-0.513-2.675-0.614-4.167C56.471,79.076,55.363,79.512,54.243,80.208z  M29.376,84.444c-0.266-0.627-0.737-3.289-1.162-3.144c-1.071,0.369-2.628,2.694-2.938,4.44c-0.479,2.71,0.812,5.046,2.254,6.422 c0.399,0.38,0.99,0.786,1.503,0.751c0.868-0.059,1.365-1.167,1.981-1.639c0.866-0.663,1.802-0.853,2.596-1.435 C31.717,88.226,30.419,86.911,29.376,84.444z M116.752,81.985c-0.78,0.635-2.504,0.779-2.597,1.844 c-0.038,0.432,0.448,1.303,0.684,1.913c0.729,1.894,1.337,4.424,1.845,6.147c0.478,0.33,1.129,0.448,1.776,0.889 c0.553,0.376,0.832,0.972,1.365,1.093c1.162,0.264,2.171-0.392,2.869-0.957c-0.259-2.031-0.697-4.274,0-6.08 c0.242-0.628,0.893-0.97,0.889-1.639C120.155,85.277,118.263,83.822,116.752,81.985z M53.56,87.792 c-0.64-0.935-1.979-2.604-2.869-2.801c-1.755-0.388-3.45,0.447-5.192-0.068c-0.46-0.438-0.312-1.264-1.024-1.366 c-0.324-0.046-1.199,0.239-1.776,0.41c-2.691,0.795-4.887,2.79-5.942,4.987c-0.953,1.982-1.424,5.54-0.273,7.651 c0.951-1.554,1.152-3.858,1.981-5.534c2.164,0.045,4.508-0.09,6.558,0.067c0.216,2.03-0.029,4.65,0.137,6.9 c2.089-1.386,5.831-2.266,9.154-1.366C55.933,94.073,55.05,89.967,53.56,87.792z M127.068,84.308 c-1.208,0.608-2.614,2.569-2.869,4.099c-0.439,2.637,0.581,4.827,1.981,6.012c0.254,0.214,0.648,0.528,0.956,0.478 C127.091,91.39,127.227,87.701,127.068,84.308z M141.482,95.102c0.467,0.461,1.075,1.894,1.708,1.981 c0.288,0.04,0.837-0.223,1.162-0.341c1.83-0.67,2.985-2.842,3.006-4.919c0.042-4.104-3.607-7.288-8.13-6.285 c0.046,2.793-0.083,5.488,0,8.13C140.088,94.057,140.763,94.391,141.482,95.102z M34.022,90.934c-3.12,1.247-5.763,3.8-4.851,8.198 c2.464,0.004,5.041,0.122,6.08-1.298c-0.276-1.183-0.839-2.705-0.957-3.826c-0.125-1.182,0.562-2.059,0.342-3.074 C34.377,90.83,34.178,90.872,34.022,90.934z M117.367,101.455c0.498,0.39,0.964,0.812,1.571,1.093 c0.505-0.325,0.768-0.957,0.957-1.64c0.184-0.668,0.579-1.36,0.615-1.981c0.052-0.911-0.374-2.044-0.751-2.938 c-0.599-1.416-1.779-2.362-2.938-3.006C116.988,95.553,117.472,98.387,117.367,101.455z M126.043,96.058 c-0.791-0.405-1.654-1.829-2.527-1.776c-0.735,0.044-2.361,1.439-2.391,2.186c-0.012,0.278,0.204,0.546,0.272,0.888 c0.254,1.269-0.049,2.334-0.137,3.347c0.805,0.706,1.848,0.745,2.731,1.23c1.41,0.772,1.925,2.375,3.074,3.143 c0.159-2.756,0.023-5.807,0.068-8.676C126.71,96.272,126.431,96.256,126.043,96.058z M139.365,101.523 c0.67,0.4,2.02,0.122,3.006,0.205c0.691-3.305-0.908-5.861-3.143-6.9C139.169,96.939,139.005,99.617,139.365,101.523z  M49.598,97.356c-1.123,0.122-4.248,1.257-4.509,2.118c-0.237,0.783,0,2.372,0,3.279c0,3.402,0.056,6.743-0.068,9.906 c-0.38,0.189-1.007,0.131-1.571,0.137c0.441,0.863,1.335,1.596,2.392,2.254c0.711,0.443,2.462,1.529,3.348,1.367 c0.603-0.111,0.926-0.818,1.366-1.299c1.293-1.412,2.771-2.424,4.509-3.074c-0.446-4.374-0.769-9.435-0.341-14.073 C53.484,97.432,51.534,97.146,49.598,97.356z M143.532,98.381c-0.014,1.162,0.251,2.116-0.067,3.347 c3.068-0.096,6.2-0.129,8.948-0.546C151.31,98.288,146.721,96.351,143.532,98.381z M123.105,111.771 c0.497,0.168,1.155,0.644,1.708,0.479c0.539-0.162,1.307-2.284,1.435-2.871c0.517-2.365-0.754-4.814-1.844-5.738 c-0.535-0.454-1.921-1.374-2.801-1.571c-0.96-0.215-1.849,0.497-1.708,1.571c0.057,0.433,0.417,0.665,0.615,1.025 c0.366,0.666,0.911,1.631,1.023,2.596c0.156,1.327-0.173,2.42,0,3.894C121.892,111.524,122.491,111.563,123.105,111.771z  M116.616,110.952c-0.154,0.75-0.517,1.494-0.614,2.254c-0.084,0.65,0.098,1.332-0.273,1.912c2.732-1.146,4.791-3.822,4.304-8.062 c-0.211-1.842-1.354-3.073-2.596-4.03c-0.004-0.042-0.01-0.081-0.068-0.068C117.147,105.845,117.123,108.49,116.616,110.952z  M34.842,105.827c-0.6,1.13-1.041,3.343-0.615,4.917c0.279,1.033,1.183,2.451,1.913,3.211c0.699,0.729,2.544,2.127,3.894,1.776 c0.402-0.104,0.655-0.625,0.957-0.957c0.334-0.368,0.787-0.556,0.889-1.024c-0.159-0.318-0.319-0.637-0.479-0.957 c-0.98-0.043-2.138,0.088-3.006-0.067C37.336,110.299,36.995,107.157,34.842,105.827z M139.433,107.467 c-0.448,1.565-0.144,4.026-0.068,5.739c0.917-0.779,2.429-1.996,4.236-2.187c1.234-0.13,2.326,0.312,3.416,0.138 c0.556-0.959,0.193-2.776-0.137-3.69C144.486,107.452,141.668,107.191,139.433,107.467z M148.792,107.876 c-0.156-0.031-0.481-0.241-0.615-0.068C148.256,108.002,148.667,108.112,148.792,107.876z M150.91,108.628 c-0.744,0.281-2.164,0.104-2.526,0.957c-0.263,0.615-0.02,1.345-0.205,2.186c1.66,1.231,3.034,2.75,3.688,4.987 c1.563-0.354,3.382-0.691,5.124-0.479C155.053,113.639,153.529,110.586,150.91,108.628z M125.633,113.137 c0.08,0.671,1.358,1.193,1.503,1.775c-0.045-1.344,0.091-2.869-0.068-4.099C126.733,111.266,125.572,112.616,125.633,113.137z  M150.842,117.441c-0.329-3.026-3.4-5.937-6.9-5.534c-1.614,0.186-4.426,1.949-4.714,3.279c-0.174,0.805,0,1.986,0,3.21 c0,2.261-0.306,4.142,1.367,4.509c1.411-2.248,3.822-4.287,7.72-3.895c0.8,0.08,1.462,0.5,2.254,0.479 C150.985,118.885,150.907,118.038,150.842,117.441z M117.435,125.502c1.11,0.455,2.527,0.609,3.484,0.547 c4.172-0.273,7.521-5.244,5.67-9.428c-0.945-2.135-3.092-4.211-6.013-4.236c-0.714-0.006-1.594,1.84-2.254,2.391 c-0.926,0.771-1.874,1.117-3.074,1.57c-0.526,1.5-1.205,2.85-1.775,4.305C114.362,122.875,115.404,124.67,117.435,125.502z  M55.268,113.137c-3.579,1.543-6.23,4.635-6.217,9.086c0.015,5.18,4.261,9.713,9.701,9.701c2.438-0.006,4.149-0.934,5.738-2.051 c-4.769-3.912-7.65-9.668-9.153-16.736C55.313,113.137,55.292,113.137,55.268,113.137z M47.343,121.54 c0.018-0.76,0.771-2.594,0.546-3.279c-0.169-0.516-2.05-1.075-2.527-1.365c-1.155-0.704-1.781-1.676-2.665-1.98 c-0.456,0.103-1.131,0.707-1.503,1.162c-2.576,3.149-1.704,7.854,0.888,9.973c0.517,0.422,1.267,0.588,2.05,0.889 c0.595,0.229,1.015,0.572,1.57,0.615c1.185,0.088,1.874-0.223,2.597-0.82C48.005,125.083,47.299,123.399,47.343,121.54z  M152.14,118.26c-0.257,0.371-0.531,1.494-0.342,2.188c0.074,0.273,0.689,0.764,0.957,1.092c0.312,0.385,0.651,0.764,0.888,1.162 c0.65,1.094,0.677,2.032,1.229,2.938c0.94-0.027,1.651-0.586,2.597-0.682c1.443-0.148,2.626,0.654,3.894,0.615 c0.296-0.388,0.349-1.02,0.546-1.504c-1.374-2.064-2.729-4.148-4.03-6.285C156.334,117.27,152.984,117.045,152.14,118.26z  M151.389,121.334c-3.461-2.99-10.148-0.867-10.248,4.1c0.49,0.695,1.293,1.046,1.845,1.708c0.477,0.571,0.664,1.302,1.161,1.913 c1.048-0.475,2.188-1.518,3.894-1.641c2.065-0.147,3.787,0.213,4.92,0.889C154.659,126.104,152.848,122.596,151.389,121.334z  M125.907,124.614c-1.239,1.383-3.001,2.1-5.26,2.459c-0.324,1.553-0.228,3.516,0.41,4.646c1.406-0.447,2.743-0.592,3.826-1.16 c2.305-1.215,2.129-4.193,2.254-7.584c-0.004-0.042-0.01-0.081-0.068-0.068C126.725,123.521,126.357,124.112,125.907,124.614z  M117.572,127.415c-1.389-0.451-2.996-1.543-3.688-2.391c-0.358-0.438-0.519-0.967-0.957-1.094c-0.229-0.064-1.23,0.939-1.436,1.094 c-0.405,0.305-0.959,0.428-1.365,0.751c-0.364,0.29-0.48,0.905-0.82,1.161c0.526,0.93,1.393,1.758,1.845,2.938 c0.565,1.475,0.28,3.484,1.093,4.852c0.908,0.109,1.999,0.227,2.869,0.068c1.227-0.221,3.505-1.615,3.895-2.527 c0.399-0.939-0.32-2.045-0.273-3.211c0.018-0.408,0.242-0.76,0.068-1.23C118.298,127.44,117.981,127.547,117.572,127.415z  M164.027,130.354c-0.789-2.018-2.519-3.713-4.577-4.1c-1.329-0.25-3.392-0.066-4.304,0.478c-0.632,0.377-1.141,1.612-1.025,2.323 c0.114,0.699,0.864,1.283,1.229,1.98c0.417,0.795,0.464,1.635,1.093,2.186c3.046-0.473,5.656,0.125,7.446,1.299 C165.055,133.19,164.663,131.981,164.027,130.354z M139.365,126.252c0.06,2.564,1.368,4.826,4.1,4.715 C142.808,128.686,141.779,126.778,139.365,126.252z M46.728,134.452c0.573,3.93,6.006,6.795,9.632,4.645 c-0.356-1.799-0.434-3.885-0.067-5.738c-3.27-1.014-5.615-2.947-7.379-5.465c-0.045,0-0.091,0-0.137,0 C46.931,129.286,46.324,131.678,46.728,134.452z M91.27,136.024c0.665,3.012,2.665,5.861,5.192,7.037 c0.563,0.26,1.143,0.277,1.708,0.477c0.347,0.123,0.578,0.348,0.957,0.41c0.898,0.152,2.554,0.24,3.552,0 c0.344-0.082,0.709-0.359,1.093-0.479c0.455-0.139,0.921-0.168,1.298-0.34c2.53-1.168,4.604-4.035,5.192-6.559 c0.772-3.32-0.434-6.299-1.981-8.404c-0.068,0-0.082-0.055-0.137-0.066C103.938,132.159,98.57,135.055,91.27,136.024z  M147.904,128.372c-0.748,0.092-1.358,0.521-1.98,0.887c-0.604,0.355-1.48,0.582-1.436,1.504c0.736,0.5,1.564,0.436,2.392,0.82 c0.758,0.354,1.359,0.975,2.05,1.23c0.554,0.205,1.077,0.119,1.571,0.205c1.784,0.307,3.196,1.697,4.234,2.801 c0.065,0.078,0.333,0.506,0.342,0.205C155.755,131.331,152.777,127.77,147.904,128.372z M58.205,133.084 c-0.669,1.951-0.652,4.174,0,6.148c1.005,3.033,4.485,6.256,8.13,6.559c2.429,0.203,4.231-0.459,5.67-1.229 c1.626-0.871,2.849-2.207,3.757-3.621c0.542-0.842,0.618-1.648,0.957-2.801c0.197-0.676,0.738-1.35,0.478-2.459 c-4.896-0.75-8.708-2.586-11.887-5.057C63.616,132.12,60.973,132.665,58.205,133.084z M145.718,135.68 c-0.668,0.195-1.505-0.152-2.118,0.137c0.49,0.83,1.264,1.139,1.98,1.846c0.327,0.322,0.69,0.682,0.889,1.025 c0.269,0.465,0.273,0.986,0.615,1.297c0.351,0.318,1.482,0.584,1.845,0.342c0.434-0.291,0.799-2.246,0.82-2.869 c0.043-1.328-0.581-2.85-1.299-3.689c-0.677-0.793-1.812-1.314-2.596-1.641C145.542,133.165,145.962,134.545,145.718,135.68z  M119.758,133.153c-0.619,0.605-1.402,1.209-2.254,1.641c-0.792,0.4-1.829,0.439-2.254,1.162c1.683,1.447,3.743,2.98,4.509,5.191 c0.265,0.766,0.19,1.742,0.957,2.322c1.63,0.229,2.67-0.166,3.757-0.957c0.47-0.34,1.738-1.166,1.708-1.844 c-0.013-0.289-0.549-0.816-0.685-1.094c-0.354-0.723-0.345-2.188-0.888-2.664c-0.22-0.193-0.741-0.197-1.093-0.342 c-0.886-0.365-1.454-1.152-2.801-0.889C120.723,134.51,120.313,133.76,119.758,133.153z M165.393,138.959 c-0.841-2.422-2.762-4.322-5.465-4.85c-1.3-0.252-3.15,0.131-3.553,0.889c-0.192,0.361-0.071,0.811-0.205,1.297 c-0.188,0.686-0.99,1.646-0.342,2.459c1.28,0.121,2.307-0.295,3.553-0.205c1.289,0.094,2.487,0.521,3.416,1.094 c0.937,0.576,1.588,1.57,2.664,1.844C165.721,140.659,165.612,139.592,165.393,138.959z M150.09,134.315 c-0.072,0.973,0.657,1.84,0.614,3.416c-0.015,0.521-0.128,1.125-0.272,1.641c-0.161,0.57-0.494,1.152-0.41,1.57 c0.115,0.578,1.12,1.047,1.571,1.504c0.409,0.414,1.063,1.762,1.775,1.707c0.648-0.049,1.33-1.719,1.436-2.801 c0.396-4.09-1.838-6.346-4.577-7.242C150.131,134.127,150.149,134.26,150.09,134.315z M134.309,135.75 c-1.571,0.072-3.217-0.225-4.646,0c-0.522,0.082-1.02,0.387-1.57,0.479c-0.621,0.102-1.301-0.012-1.708,0.408 c0.828,3.535,4.119,6.514,8.334,5.396c0.636-0.168,1.987-1.119,2.732-1.775c1.139-1.004,1.691-2.588,1.846-4.441 C137.765,135.602,136.058,135.668,134.309,135.75z M80.067,137.594c0.534,0.158,1.194,0.389,1.571,0.615 c0.916,0.551,1.416,1.357,2.731,0.818c1.214-0.496,2.436-1.563,3.074-2.527c-3.314,0.061-6.492-0.02-9.154-0.615 C78.081,137.274,79.078,137.299,80.067,137.594z M138.818,149.139c2.235,0.225,3.914-0.434,5.056-1.434 c1.27-1.113,2.41-3.156,2.46-4.852c0.036-1.264-0.649-3.08-1.366-4.031c-0.46-0.611-1.239-1.191-1.846-1.57 c-0.688-0.434-2.119-1.285-2.801-0.752c-0.657,3.898-3.077,6.033-6.899,6.764C133.478,146.526,135.973,148.856,138.818,149.139z  M100.493,149.208c1.166,3.5,4.355,6.096,8.472,6.285c5.299,0.244,9.811-3.668,10.179-8.813c0.229-3.189-0.829-5.459-2.391-7.24 c-1.107-1.264-2.766-2.504-5.057-2.939c-0.117-0.021-0.24,0.07-0.272,0.137c-1.634,4.936-5.119,8.352-11.342,8.473 C99.597,146.614,100.11,148.059,100.493,149.208z M84.302,140.19c1.775,2.055,3.208,5.023,3.211,8.471 c3.183,0.561,4.901-0.928,6.285-2.527c0.322-0.375,1.001-0.979,0.956-1.365c-0.052-0.443-1.408-1.211-1.845-1.572 c-1.996-1.652-3.373-3.926-4.03-6.42c-0.004-0.043-0.011-0.082-0.068-0.068C87.684,138.245,86.169,139.393,84.302,140.19z  M75.421,157.61c2.316,0.176,4.107-0.338,5.67-1.229c2.621-1.496,4.841-4.352,4.919-8.197c0.098-4.863-3.631-9.188-7.856-9.701 c-0.12-0.016-0.238,0.063-0.272,0.137c-0.387,0.375-0.435,1.303-0.684,1.844c-0.756,1.641-1.801,2.689-3.006,3.758 c-1.274,1.131-2.758,2.021-4.714,2.391c-0.826,0.156-1.721-0.02-2.664,0.342C66.427,152.772,70.058,157.204,75.421,157.61z  M165.325,145.381c-0.462-3.416-3.532-5.949-7.24-5.602c-0.65,0.061-1.79,0.359-2.05,0.957c-0.381,0.871-0.209,2.27-0.751,3.143 c1.389,0.307,2.749,0.014,3.962,0.547c0.797,0.35,2.221,1.211,2.802,1.707c1.02,0.871,1.337,2.293,2.049,3.484 C165.066,148.641,165.536,146.938,165.325,145.381z M54.038,141.01c-0.533,0.596-0.61,1.705-0.614,2.391 c-0.023,4.457,4.893,8.627,9.633,6.627c1.131-0.479,2.286-1.063,1.913-2.801c-1.771-0.871-3.564-1.334-4.918-2.598 c-1.303-1.213-2.471-2.525-3.211-4.303C55.692,140.458,54.589,140.397,54.038,141.01z M151.593,151.122 c0.373-0.699,0.96-2.498,0.957-3.348c-0.004-1.059-0.621-2.859-1.161-3.689c-0.425-0.654-1.208-1.348-1.981-1.846 c-0.487-0.314-1.797-1.045-2.118-0.615c0.089,5.207-2.738,7.92-7.173,8.814C141.98,155.584,149.391,155.249,151.593,151.122z  M123.584,145.11c0.874,0.434,2.425,1.586,3.278,2.459c0.4,0.408,0.784,0.961,1.229,1.639c0.328,0.498,0.873,1.492,1.298,1.572 c0.839,0.154,1.688-0.676,2.187-1.094c0.561-0.471,1.479-1.229,1.502-1.775c0.033-0.773-1.067-1.822-1.298-2.801 c-0.084-0.361-0.037-0.68-0.137-0.889c-0.402-0.844-2.125-0.787-3.074-1.365c-0.593-0.363-0.936-1.055-1.503-1.094 c-0.806,0.516-1.558,1.328-2.391,1.846c-0.659,0.408-1.587,0.463-1.981,1.229C123.02,144.983,123.296,144.965,123.584,145.11z  M157.332,158.022c3.557-0.287,6.189-3.488,5.738-7.721c-0.313-2.955-3.777-5.855-7.31-5.057c1.984,1.459,3.512,3.84,3.278,7.037 c-0.188,2.578-1.676,4.133-3.143,5.533C156.361,158.061,156.861,158.059,157.332,158.022z M99.673,156.108 c0.367-0.35,1.173-1.16,1.161-1.709c-0.011-0.484-0.764-1.127-1.094-1.57c-1.142-1.533-2.142-3.176-2.322-5.74 c-0.025-0.354,0.075-0.75,0-1.023c-0.082-0.295-0.772-0.982-1.229-0.957c-0.798,0.043-0.964,1.115-1.571,1.844 c-0.465,0.559-1.569,1.418-2.05,1.709c-0.588,0.357-1.171,0.447-1.98,0.82c-1.388,0.637,0.827,1.508,1.365,1.98 c1.243,1.09,2.173,2.471,2.802,3.895c0.354,0.803,0.354,1.709,0.888,2.527C97.374,157.721,98.71,157.022,99.673,156.108z  M153.164,145.725c0.122,0.805,0.515,1.674,0.41,2.391c-0.059,0.402-0.3,0.85-0.41,1.297c-0.697,2.855-2.457,4.928-5.124,5.604 c-0.446,0.111-1.056,0-1.435,0.477c0.172,0.916,1.148,1.453,1.981,1.846c0.888,0.418,2.03,0.754,3.211,0.75 c3.815-0.008,6.56-3.281,6.08-7.787c-0.25-2.348-2.312-4.367-4.51-4.781C153.271,145.557,153.203,145.625,153.164,145.725z  M116.889,165.125c0.9,0.229,2.155,0.232,3.21,0.135c4.605-0.42,7.934-4.363,8.676-8.742c0.224-1.32-0.063-2.201-0.41-3.35 c-0.852-2.818-2.299-4.771-4.714-6.08c-1.044-0.564-2.244-1.285-3.416-0.887c-0.296,0.406-0.286,1.633-0.41,2.254 c-0.697,3.504-3.166,5.92-6.012,7.242c-1.237,0.574-2.652,0.691-4.304,1.023C109.964,161.356,112.996,164.137,116.889,165.125z  M139.023,154.331c0.152-0.266,0.413-0.789,0.41-1.092c-0.007-0.77-0.906-2.129-1.436-2.393c-0.359-0.18-0.996-0.17-1.435-0.342 c-0.986-0.387-2.295-1.924-2.869-1.434c-0.573,0.488-0.988,1.107-1.571,1.57c-0.687,0.543-1.423,0.725-2.322,1.23 c-0.293,1.146,1.219,1.191,1.913,1.434c2.149,0.756,3.6,2.182,5.056,3.213C137.352,156.002,138.518,155.217,139.023,154.331z  M68.999,156.518c-1.354-1.172-2.538-2.725-3.211-4.51c-0.197-0.525-0.415-2.004-0.888-1.775c-1.332,0.643-2.396,1.154-4.099,1.367 c-1.111,5.449,2.104,9.234,7.037,9.152c2.054-0.033,3.476-0.914,4.509-2.117C71.15,157.676,70.105,157.473,68.999,156.518z  M166.008,152.692c-0.047-0.746-0.05-2.24-0.684-2.254c-0.337-0.008-1.229,1.352-1.229,1.57c0.001,0.334,0.326,0.477,0.478,0.752 c0.396,0.715,0.283,2.285,1.298,2.322C166.014,154.35,166.066,153.606,166.008,152.692z M85.122,169.428 c5.121-0.334,9.11-4.385,9.154-9.699c0.025-3.035-1.321-5.576-3.143-7.174c-0.89-0.779-2.374-1.783-4.03-2.049 c-0.206-0.033-0.13,0.129-0.273,0.137c-0.949,2.332-2.004,4.477-3.894,5.875c-1.299,0.961-3.236,1.955-5.26,2.117 c-0.819,0.064-1.729-0.176-2.597,0.205C74.469,165.125,79.468,169.799,85.122,169.428z M168.057,156.176 c0.478-1.346-0.066-3.07-0.751-3.895C166.825,153.534,166.939,155.715,168.057,156.176z M138.34,156.723 c-0.352,0.291-0.853,0.414-0.889,0.818c-0.026,0.301,0.809,1.691,0.889,1.777c0.489,0.518,1.892,0.766,2.731,1.092 c0.416,0.162,0.876,0.346,1.298,0.615c0.396,0.252,0.868,0.695,1.23,0.684c0.72-0.023,1.266-1.008,1.64-1.436 c0.411-0.469,1.242-1.264,1.161-1.98c-0.059-0.525-1.551-2.002-1.98-2.256c-0.729-0.428-1.887-0.557-2.665-1.023 c-0.492-0.297-0.859-0.869-1.299-0.82C139.802,154.735,139.137,156.061,138.34,156.723z M164.573,157.407 c0.158-1.213,0.073-2.635-0.683-3.076c-0.087-0.002-0.095-0.086-0.205-0.068c-0.625,1.379-1.438,2.572-2.596,3.416 c0.278,1.691,0.184,3.348-0.138,4.92C162.665,162.028,164.28,159.665,164.573,157.407z M129.869,155.014 c-0.133,2.916-0.882,5.238-2.186,7.037c-1.26,1.738-3.573,3.346-5.944,3.895c-0.879,0.203-1.829,0.158-2.801,0.479 c0.232,2.09,1.378,3.738,2.801,4.986c0.808,0.709,1.825,1.375,3.006,1.844c0.981,0.391,2.874,0.963,3.895,0.889 c0.538-0.039,0.946-0.414,1.435-0.547c0.651-0.178,1.169-0.207,1.708-0.408c1.56-0.59,2.633-1.486,3.689-2.664 c1.233-1.377,2.4-3.68,2.459-6.08c0.058-2.385-1.04-4.834-2.323-6.355c-1.274-1.51-3.077-3.063-5.534-3.277 C129.975,154.848,129.907,154.917,129.869,155.014z M104.25,156.518c-0.865-0.373-2.089-1.713-2.733-1.025 c-0.814,0.871-1.438,1.752-2.459,2.391c-1.068,0.67-2.166,0.783-3.484,1.436c1.389,0.857,2.969,1.195,4.373,2.391 c0.513,0.438,1.079,1.123,1.571,1.777c0.407,0.541,0.926,1.814,1.503,1.912c0.929,0.154,2.448-1.051,3.074-1.775 c0.557-0.645,1.359-1.859,1.57-2.596c0.401-1.404-0.649-2.387-0.751-3.553C106.209,156.934,105.238,156.944,104.25,156.518z  M167.716,159.114c-0.381-1.102-0.432-1.959-1.298-2.254c-0.487,0.633-1.407,1.635-1.299,2.459c0.079,0.602,1.14,1.229,1.571,1.707 c0.625,0.691,0.802,1.541,1.436,1.709C168.549,161.29,168.086,160.18,167.716,159.114z M157.81,165.057 c0.688-0.58,1.809-1.953,2.118-2.732c0.268-0.676,0.729-3.682-0.138-3.826c-0.521-0.086-1.37,0.486-1.98,0.545 c-1.639,0.16-3.599-0.232-4.167,0.82c0.018,2.684-1.445,4.248-2.254,5.875C153.63,166.639,156.199,166.417,157.81,165.057z  M146.265,160.821c-0.354,0.453-0.915,0.842-1.298,1.229c-0.689,0.701,0.182,1.277,0.683,1.846c0.374,0.424,0.732,0.932,1.162,1.162 c0.325,0.174,0.698,0.262,1.024,0.41c1.318,0.598,1.604,0.24,2.459-0.615c1.007-1.008,1.408-1.43,1.912-2.869 c0.163-0.465,0.676-1.385,0.342-1.846c-0.313-0.428-1.557-0.256-2.597-0.408c-0.893-0.133-1.894-0.891-2.391-0.752 C146.943,159.149,146.755,160.194,146.265,160.821z M72.62,160.002c-1.232,0.975-2.737,1.629-4.646,1.912 c-0.888,5.406,5.01,9.248,9.633,6.9c-1.563-1.826-3.545-3.705-3.962-6.559c-0.109-0.744,0.024-1.607-0.41-2.391 C72.904,159.819,72.743,159.905,72.62,160.002z M168.194,166.627c-0.059-0.256-0.275-0.367-0.41-0.682 c-0.333-0.785-0.478-1.736-0.888-2.461c-0.329-0.58-0.656-0.83-1.024-1.365c-0.342-0.498-0.794-1.18-1.229-1.162 c-0.478,0.021-1.942,1.955-1.913,2.254c0.032,0.324,0.924,0.885,1.298,1.23c1.355,1.25,2.53,2.77,3.006,4.713 c0.124,0.506,0.007,1.07,0.479,1.641C168.216,170.229,168.505,167.993,168.194,166.627z M95.301,161.231 c-1.286,5.668-5.285,9.389-12.161,9.359c0.211,2.402,1.065,4.621,2.528,6.217c1.347,1.471,3.419,2.855,5.67,3.074 c1.142,0.109,2.646,0.104,3.962-0.273c1.383-0.396,2.98-1.426,4.099-2.391c1.869-1.615,3.083-4.379,3.074-7.174 c-0.007-2.287-0.901-4.334-2.049-5.807c-1.084-1.391-2.925-2.777-4.918-3.211C95.408,161.065,95.339,161.133,95.301,161.231z  M138.818,161.778c-0.038,1.148,0.221,2.311,0.137,3.348c-0.248,3.053-1.971,5.766-3.825,7.311 c-0.761,0.633-1.874,1.355-2.869,1.709c-1.258,0.443-2.834,0.238-4.1,1.023c1.228,1.979,2.661,3.828,4.782,4.713 c0.79,0.33,2.38,0.814,3.416,0.889c4.982,0.357,9.803-3.564,10.179-8.813c0.153-2.137-0.193-3.922-0.888-5.262 c-1.333-2.572-3.68-4.402-6.695-5.123C138.869,161.602,138.815,161.661,138.818,161.778z M108.554,162.051 c0,0.092-0.12,0.063-0.136,0.137c-0.604,0.777-1.064,1.535-1.641,2.188c-0.604,0.684-1.171,1.238-2.186,1.639 c-0.8,0.314-1.346,0.242-1.367,1.162c-0.03,1.301,1.185,1.578,2.187,1.912c1.25,0.418,1.977,0.797,2.938,1.572 c0.422,0.34,0.909,0.904,1.366,0.887c0.659-0.021,1.919-1.307,2.459-1.912c0.816-0.918,1.084-2.113,1.64-3.211 C111.748,165.28,110.089,163.727,108.554,162.051z M165.53,176.739c0.683-1.313,0.763-3.828,0.615-5.738 c-0.274-3.561-2.816-5.877-4.987-7.174c-0.488,0.291-2.115,0.646-1.913,1.641c0.075,0.363,1.09,0.705,1.503,1.025 c1.493,1.145,2.61,2.596,3.349,4.439c0.844,2.109,0.815,4.061,0.478,6.559C165.135,177.43,165.363,177.061,165.53,176.739z  M138.409,183.161c0.52,0.373,1.026,0.797,1.502,1.025c3.721,1.773,8.099,0.846,10.932-1.846c1.021-0.969,1.738-2.316,2.254-3.756 c0.184-0.512,0.481-1.084,0.547-1.504c0.121-0.791,0.141-1.783,0.136-2.459c-0.001-0.262-0.056-0.645-0.136-1.023 c-0.539-2.539-2.287-4.984-4.236-6.285c-0.771-0.516-1.918-1.342-2.731-1.025c0.131,0.975,0.718,1.596,0.819,2.734 c0.152,1.709,0.144,3.492-0.205,4.85c-0.943,3.68-4.09,6.719-7.855,7.65c-0.753,0.186-1.509,0.098-2.254,0.41 C137.254,182.6,137.958,182.838,138.409,183.161z M159.928,182.545c0.105-0.076,0.242-0.188,0.341-0.271 c2.023-1.707,3.297-4.395,3.279-7.584c-0.022-4.09-2.483-6.688-5.465-8.197c-0.897,0.332-1.759,0.701-2.665,1.025 c1.594,1.754,3.552,3.143,4.03,6.012c0.388,0.441,0.529,1.023,0.546,1.707c0.074,2.879-0.566,5.215-1.639,6.9 c-0.354,0.557-1.044,0.955-0.957,1.641C158.265,183.629,159.231,183.047,159.928,182.545z M114.019,168.952 c-0.295,0.68-1.22,1.709-1.776,2.186c-0.45,0.387-1.639,0.875-1.708,1.367c-0.072,0.518,0.584,1.004,0.889,1.57 c0.207,0.385,0.2,0.717,0.41,1.025c0.344,0.508,1.28,0.793,1.912,1.094c0.722,0.344,1.532,0.963,2.118,0.957 c0.657-0.008,1.591-0.711,2.049-1.094c0.599-0.498,2.141-1.848,2.051-2.869c-0.043-0.482-0.573-0.891-1.025-1.365 c-0.841-0.887-1.45-1.709-1.981-2.939c-0.527-1.223-0.474-2.387-2.186-1.98C114.178,167.667,114.363,168.163,114.019,168.952z  M150.09,186.098c4.79-0.389,8.834-4.396,8.813-9.77c-0.017-4.07-2.817-7.49-5.875-8.813c-0.548-0.236-1.433-0.416-1.913-0.342 c1.219,1.615,2.845,3.314,3.416,5.67c0.308,1.266,0.229,2.748,0.137,3.895c-0.263,3.236-2.548,6.152-4.714,7.584 c-0.878,0.58-1.889,0.789-2.665,1.434C148.098,186.237,149.123,186.176,150.09,186.098z M82.184,174.348 c-0.448-1.201-0.226-2.91-0.888-3.758c-0.375-0.479-1.645-0.918-2.254-1.092c-0.663-0.189-1.933,0.797-2.733,0.957 c-0.588,0.117-1.142-0.047-1.639,0.273c-0.197,1.613,0.628,3.287,1.639,4.439c1.509,1.719,4.304,3.045,7.378,1.912 C83.315,176.092,82.591,175.438,82.184,174.348z M103.362,172.094c-0.146,1.277-0.679,2.604-1.298,3.619 c-1.395,2.289-3.895,4.551-7.104,5.057c-0.972,0.152-2.421-0.014-2.664,0.479c-0.201,0.404,0.241,1.021,0.409,1.436 c0.281,0.691,0.273,1.076,0.479,1.504c0.693,1.439,2.347,2.982,3.894,3.893c1.78,1.047,4.273,1.26,6.626,1.025 c0.458-0.045,1.201-0.48,1.708-0.684c1.806-0.723,2.996-1.662,4.1-3.279c0.573-0.84,1.57-2.469,1.775-3.484 c0.279-1.381,0.245-3.113,0-4.371c-0.73-3.754-3.895-6.291-7.515-7.242C103.186,170.461,103.434,171.471,103.362,172.094z  M118.187,179.608c0.313,0.375,0.465,0.848,0.888,1.094c1.924,1.119,4.524-0.338,5.67-1.641c0.437-0.494,1.439-1.914,1.299-2.732 c-0.157-0.912-1.581-0.809-2.802-1.297c-0.988-0.398-1.55-1.266-2.459-0.82c-0.479,0.504-0.716,1.125-1.161,1.641 c-0.783,0.906-1.854,1.359-2.801,2.117C116.949,178.702,117.737,179.069,118.187,179.608z M112.244,177.354 c-0.102,1.584,0.153,2.908-0.067,4.373c-0.066,0.434-0.359,0.938-0.546,1.434c-0.588,1.557-1.033,2.096-1.981,3.279 c-1.938,2.42-4.855,3.887-9.154,3.758c1.093,2.266,2.804,4.172,5.124,5.123c1.136,0.465,2.611,0.922,3.962,0.889 c1.373-0.035,3.046-0.541,4.167-1.094c2.975-1.461,5.354-4.922,5.329-9.018c-0.014-2.205-0.881-4.184-2.117-5.807 c-1.022-1.342-2.944-2.77-4.646-3.143C112.232,177.161,112.238,177.256,112.244,177.354z M124.745,182.956 c1.458,0,2.299-0.281,3.279-0.957c0.455-0.313,1.542-1.127,1.503-1.502c-0.021-0.219-0.662-0.492-0.888-0.682 c-0.658-0.555-1.193-1.832-1.981-1.846c-1.012,1.813-2.502,3.145-4.509,3.961C122.381,182.813,123.671,182.956,124.745,182.956z  M88.811,180.702c-0.589-0.221-1.214-0.568-1.64-0.82c-0.859-0.508-2.099-1.814-3.074-1.844c-0.54-0.018-1.267,0.238-1.844,0.34 c-0.491,0.088-1.149,0.064-1.367,0.479c0.72,2.432,3.155,5.092,6.49,4.986c1.131-0.033,2.669-0.262,3.278-1.023 C90.823,181.18,90.008,181.151,88.811,180.702z M135.607,190.061c0.207-2.85-0.968-5.729-2.664-7.377 c-0.547-0.531-1.377-1.125-1.98-1.367c-0.533-0.213-1.375,1.129-1.708,1.367c1.525,1.008,2.785,2.049,3.758,3.416 c1.179,1.658,1.621,3.828,1.844,6.217C135.851,192,135.557,190.749,135.607,190.061z M119.348,200.036 c3.346-1.066,6.01-4.361,6.285-8.199c0.354-4.93-2.486-8.602-6.285-9.838c0,0.068,0,0.137,0,0.205 c2.418,8.215-2.593,14.883-10.384,15.031C110.676,200.456,115.799,201.167,119.348,200.036z M134.719,182.75 c0.152,0.404,0.407,0.781,0.615,1.162c0.208,0.379,0.429,0.818,0.819,1.025c0.324-0.588,0.205-1.691-0.137-2.188 C135.511,182.674,135.256,182.733,134.719,182.75z M130.279,199.625c1.635-1.363,3.152-3.713,3.349-6.285 c0.387-5.105-2.664-9.02-6.013-9.975c-0.144-0.041-0.125-0.023-0.342,0c-0.43,0.826,0.476,1.322,0.888,1.709 c1.472,1.379,2.692,3.17,2.869,5.807c0.166,2.471-0.008,4.725-0.751,6.285c-0.774,1.629-2.199,2.424-3.006,3.961 C128.395,200.969,129.454,200.313,130.279,199.625z M92.568,186.098c-0.421-0.58-1.183-2.443-1.708-2.186 c-0.491,0.24-0.998,0.58-1.775,0.75c-0.726,0.16-1.537,0.072-1.641,0.547c-0.057,0.266,0.638,1.18,0.957,1.57 c1.144,1.406,3.035,2.449,4.987,2.596c1.098,0.084,1.647-0.039,2.05-0.477C94.424,188.022,93.468,187.338,92.568,186.098z  M121.534,202.084c5.788-0.422,10.073-6.893,7.993-12.844c-0.407-1.164-1.186-2.34-2.049-3.211c-0.665-0.67-1.958-1.686-2.938-1.98 c-0.096,0.018-0.077,0.15-0.137,0.205c-0.042,0.002-0.081,0.01-0.067,0.068c1.151,1.381,2.215,3.672,2.391,5.875 c0.137,1.723-0.268,3.357-0.751,4.645c-1.126,2.998-3.496,4.955-6.354,6.08c-0.587,0.232-1.393,0.338-1.775,0.957 C119.021,202.047,120.488,202.161,121.534,202.084z M98.58,190.334c-0.831-0.813-2.585-0.461-3.62,0.068 c0.968,1.609,2.877,2.912,5.191,2.73C99.63,192.377,99.197,190.938,98.58,190.334z"/><path fill="#01509E" d="M389.537,70.508c0.017,4.747,0.309,9.936,0,14.551c-1.964,0.255-4.622,0.146-6.694,0.068 c-1.258-2.243-1.952-4.48-3.279-6.285c-1.358-1.846-3.04-3.159-5.533-3.962c-5.266-1.696-11.714-0.902-15.645,1.64 c-3.957,2.559-6.403,6.417-8.063,10.999c-3.326,9.188-2.748,24.544,0.957,32.86c1.956,4.389,4.943,7.922,9.701,9.359 c5.233,1.58,12.315,0.752,15.234-2.324c2.315-2.439,2.301-7.436,1.913-12.092c-0.191-2.291-0.645-4.514-2.255-5.534 c-1.226-0.776-2.827-0.937-4.304-1.571c-0.295-1.002-0.062-2.534-0.136-3.757c7.744-0.272,16.258-0.138,24.115-0.068 c-0.071,1.038,0.583,2.665,0.067,3.689c-0.274,0.547-2.05,0.819-2.801,1.229c-3.365,1.842-2.596,8.492-2.596,13.732 c0,4.097,0.25,8.307-0.068,12.229c-0.929,0.375-1.695,0.496-2.526,0.684c-0.795,0.178-1.767,0.619-2.664,0.545 c-0.878-0.07-1.525-1.031-2.188-1.639c-0.626-0.576-1.337-1.641-2.118-1.709c-0.841-0.072-2.675,1.09-3.416,1.367 c-3.498,1.305-7.486,1.834-12.16,1.98c-18.772,0.588-27.91-10.133-29.717-26.848c-2.075-19.204,4.813-32.772,17.489-38.462 c3.409-1.53,6.792-2.559,11.271-2.869C373.146,67.696,382.066,68.833,389.537,70.508z"/><path fill="#01509E" d="M295.945,70.508c0.068,4.495,0.204,9.717-0.067,14.21c-0.89,0.365-2.152,0.205-3.348,0.205 c-1.188,0-2.398,0.051-3.416-0.068c-0.684-1.183-1.067-2.415-1.503-3.552c-1.354-3.545-4.145-6-8.198-6.764 c-6.322-1.19-12.527,0.399-14.961,4.236c-1.303,2.055-1.584,4.869-0.956,7.31c0.577,2.243,1.882,4.056,3.484,5.397 c3.299,2.76,7.762,4.509,11.614,6.216c4.009,1.777,8.133,3.656,11.545,6.285c3.358,2.587,6.281,5.91,7.036,10.795 c0.888,5.734-0.762,10.838-3.348,14.072c-2.794,3.496-6.792,5.523-11.271,6.559c-8.548,1.973-19.68,0.996-28.146-0.752 c-0.479-0.098-1.07-0.266-1.844-0.41c-0.533-0.098-1.534-0.236-1.708-0.477c-0.345-0.479-0.067-2.523-0.067-3.555 c0-3.657-0.06-7.657,0.067-10.861c2.056-0.271,4.868-0.137,7.037-0.068c0.953,3.682,2.208,6.541,4.646,8.541 c4.713,3.865,16.091,3.738,20.29-0.41c2.208-2.182,3.183-6.215,2.321-10.248c-0.704-3.297-3.303-5.461-5.942-7.174 c-2.71-1.756-5.867-3.131-8.745-4.372c-6.152-2.651-12.298-5.367-15.986-10.179c-2.045-2.67-3.163-5.92-3.006-10.111 c0.149-3.969,1.697-7.06,3.689-9.428c3.671-4.364,10.764-7.272,18.786-7.651C282.302,67.858,289.417,68.925,295.945,70.508z"/><path fill="#01509E" d="M424.174,69.005c0.37,1.082-0.048,2.373,0.067,3.757c-2.198,0.717-4.861,0.896-5.807,2.869 c-1.132,2.364-0.684,7.081-0.684,10.658c0,2.66,0,5.565,0,8.539c0,0.912-0.08,2.409,0.137,2.665 c0.374,0.442,2.564,0.205,3.484,0.205c7.664,0,14.41,0,22.134,0c1.159,0,2.934,0.211,3.347-0.205c0.328-0.33,0.205-1.81,0.205-2.733 c0-4.974,0.23-9.609,0-14.482c-0.092-1.936-0.167-3.872-0.819-4.987c-0.999-1.706-3.536-1.717-5.534-2.528 c-0.224-1.16-0.238-2.526-0.067-3.757c7.995-0.272,16.759-0.138,24.867-0.068c0.383,0.911,0.188,2.7,0.137,3.826 c-2.171,0.69-4.926,0.893-5.808,3.006c-0.567,1.364-0.614,3.822-0.614,6.148c0.001,13.272-0.001,26.94,0,40.306 c0,3.854-0.019,7.229,2.459,8.471c1.135,0.568,3.019,0.697,3.962,1.23c0.178,0.977,0.068,2.539,0,3.689 c-7.996,0.227-16.939,0.227-24.936,0c-0.188-0.941-0.252-2.691,0-3.621c0.928-0.691,2.223-0.656,3.278-1.025 c2.864-1.002,3.017-3.561,3.144-7.584c0.179-5.689-0.002-10.549,0-16.395c0-1.04,0.109-2.763-0.205-3.074 c-0.4-0.395-2.41-0.205-3.484-0.205c-8.374,0-17.378,0.064-25.414,0.136c-0.368,1.819-0.205,3.893-0.205,6.012 c0,4.052,0.001,8.239,0,12.435c0,2.094-0.111,4.234,0.342,5.807c0.395,1.363,1.426,2.195,2.597,2.664 c1.13,0.451,2.501,0.445,3.552,1.23c-0.079,1.195,0.165,2.715-0.137,3.688c-8.037,0.248-16.959,0.201-25.003,0 c-0.009-0.797-0.49-2.789,0-3.619c0.457-0.775,3.221-0.816,4.372-1.504c2.326-1.389,2.117-5.238,2.117-9.154 c0.002-10.982,0-21.991,0-33.133c0-2.072,0.056-4.326,0-6.627c-0.072-3.082-0.062-5.918-1.707-7.173 c-1.272-0.97-3.623-1.045-4.851-1.708c0.175-0.869-0.712-3.625,0.546-3.894c0.866-0.186,2.107,0,3.143,0 C409.681,68.868,417.615,68.901,424.174,69.005z"/><path fill="#01509E" d="M534.64,69.005c0.367,5.812-0.066,12.001,0.068,18.035c-0.979,0.183-2.047,0.137-3.279,0.137 c-0.965,0-2.607,0.333-3.211-0.068c-0.352-0.233-0.651-1.723-0.889-2.459c-1.437-4.463-3.394-9.229-8.607-9.769 c-2.582-0.268-5.271-0.001-8.334,0c-0.362,2.087-0.206,4.333-0.205,6.627c0.004,13.382,0.069,27.207,0.068,40.784 c0,3.42,0.066,6.465,2.049,7.857c1.521,1.066,3.761,0.996,5.329,1.707c0.075,1.064,0.192,2.734-0.068,3.689 c-0.985,0.309-2.083,0.137-3.143,0.137c-7.759,0-16.162,0.021-23.774,0c-0.261-0.953-0.144-2.625-0.068-3.689 c1.467-0.701,3.597-0.754,5.056-1.639c2.172-1.318,2.352-4.033,2.391-7.721c0.154-14.625,0.067-29.351,0.068-44.337 c0-1.058,0.102-2.867-0.205-3.211c-0.403-0.451-1.923-0.294-2.528-0.273c-2.638,0.091-5.775-0.123-7.855,0.547 c-4.717,1.517-5.581,7.448-7.379,11.818c-1.981,0.175-4.963,0.312-6.831-0.068c-0.249-5.018-0.136-10.648-0.138-16.19 c0-0.806-0.191-1.872,0.41-1.981c1.904-0.348,5.643-0.068,7.856-0.068C498.961,68.868,517.59,68.756,534.64,69.005z"/><path fill="#01509E" d="M329.01,69.073c0.179,1.011,0.15,2.619,0,3.621c-1.134,0.783-2.953,0.703-4.236,1.435 c-2.156,1.23-2.186,4.431-2.186,8.129c0.001,13.511-0.001,27.007,0,40.716c0,2.298,0.035,4.75,0.684,6.081 c0.946,1.941,3.738,2.104,5.738,2.869c0.224,0.959,0.224,2.797,0,3.756c-7.962,0.229-16.901,0.229-24.936,0 c-0.307-0.994-0.404-2.752,0-3.688c0.827-0.535,2.218-0.627,3.279-1.025c0.975-0.365,1.905-1,2.322-1.844 c0.67-1.357,0.683-3.984,0.683-6.217c0-13.616-0.066-27.34-0.068-40.921c0-2.352,0.014-4.856-0.614-6.217 c-0.914-1.983-3.736-2.226-5.808-2.938c0.012-0.358-0.067-1.099-0.067-2.049c0-0.601-0.208-1.744,0.342-1.776 c3.669-0.22,8.601-0.068,12.638-0.068C321.111,68.937,325.345,68.826,329.01,69.073z"/><path fill="#01509E" d="M188.894,69.005c17.693,0.091,35.782-0.182,53.354,0.137c0.272,4.965,0.138,10.702,0.068,15.781 c-0.825,0.336-1.959,0.205-3.347,0.205c-0.976,0-2.748,0.28-3.416-0.068c-0.356-0.186-0.571-1.268-0.751-1.708 c-1.639-3.988-3.247-7.86-8.472-8.334c-6.017-0.546-12.537,0.015-18.923,0c-0.37,1.781-0.206,3.734-0.205,5.67 c0,5.642-0.112,11.804,0.138,17.284c0.949,0.359,2.179,0.205,3.416,0.205c1.162,0,2.391,0,3.621,0c4.139,0,7.497,0.351,9.153-1.98 c0.982-1.382,1.368-3.149,1.981-5.124c2.176,0.034,4.595-0.049,6.558,0c0.359,0.699,0.205,1.538,0.205,2.323 c0,5.668,0.057,11.863-0.068,17.488c-1.772,0.354-4.681,0.273-6.558,0.068c-0.466-0.414-0.456-1.053-0.615-1.572 c-0.611-1.993-1.651-4.358-3.757-4.987c-2.563-0.766-6.936-0.342-10.453-0.342c-1.049,0-2.989-0.19-3.416,0.137 c-0.43,0.331-0.205,2.091-0.205,2.938c0,6.648,0,12.802,0,19.402c0,0.85-0.187,2.703,0.138,3.074 c0.322,0.371,1.81,0.205,2.731,0.205c2.756,0,6.255,0,8.745,0c4.032,0,8.271,0.344,10.727-0.955 c4.053-2.148,4.39-7.547,6.489-11.479c2.132-0.076,4.879-0.191,6.9,0.068c-0.247,5.971-0.673,12.352-1.161,18.309 c-15.995,0.125-33.38,0.068-49.939,0.068c-1.062,0-2.695,0.164-3.006-0.135c-0.669-0.646,0.073-2.613-0.205-3.758 c2.022-0.631,4.782-0.859,5.739-2.666c0.689-1.301,0.684-3.846,0.684-6.215c-0.001-13.714,0-27.286,0-41.058 c0-2.354,0.049-4.807-0.615-6.217c-0.909-1.93-3.788-2.129-5.67-2.869C188.598,71.848,188.417,69.847,188.894,69.005z"/><path fill="#01509E" d="M282.213,157.747c0.066,1.813,0.202,4.248-0.068,5.945c-0.473,0.256-1.368,0.088-2.049,0.135 c-1.061-1.768-1.804-4.049-4.167-4.85c-2.154-0.73-5.218-0.561-7.104,0.547c-1.932,1.133-3.173,3.971-1.775,6.557 c1.414,2.621,4.887,3.732,7.788,5.055c3.584,1.639,8.222,3.57,8.266,8.678c0.074,8.59-9.142,9.441-17.352,8.266 c-1.495-0.213-3.009-0.27-4.167-0.887c-0.069-1.781-0.203-4.207,0.067-5.875c0.633-0.188,2.032-0.297,2.459,0.066 c0.422,0.361,0.384,1.217,0.546,1.572c0.521,1.141,1.531,2.4,2.801,3.006c2.727,1.299,7.571,0.969,9.496-0.957 c1.396-1.395,1.845-4.859,0.546-6.898c-0.244-0.387-0.553-0.781-0.888-1.094c-3.584-3.344-11.653-4.189-14.141-9.086 c-0.438-0.859-0.675-1.805-0.684-2.869C261.722,156.215,274.076,155.592,282.213,157.747z"/><path fill="#01509E" d="M322.315,187.875c-0.069-0.867,0.64-0.857,1.161-1.025c0.654-0.211,1.265-0.414,1.572-0.955 c0.758-1.344,0.478-4.125,0.478-6.285c0-4.273,0-9.092,0-13.527c0-2.988,0.464-6.482-1.298-7.447 c-0.771-0.422-1.816-0.301-1.913-0.887c-0.177-1.076,2.204-0.684,3.621-0.684c2.097,0,3.302,0,5.534,0 c0.806,0,2.008-0.102,2.118,0.479c0.142,0.752-1.415,0.865-1.913,1.162c-1.896,1.127-1.366,5.592-1.366,8.744 c0,3.996,0,8.373,0,12.707c0,2.623-0.215,5.5,1.298,6.42c0.553,0.336,2.028,0.281,1.981,1.094c-0.042,0.727-1.437,0.479-2.459,0.479 c-2.188,0-3.976,0-6.08,0C324.072,188.149,323.021,188.35,322.315,187.875z"/><path fill="#01509E" d="M250.856,180.565c0.576-0.617,0.261-1.564,0.205-2.322c-0.303-4.094-0.06-8.879-0.273-13.391 c-0.121-2.576,0.451-5.096-1.024-6.08c-0.602-0.4-2.021-0.459-2.049-1.094c-0.039-0.834,1.308-0.561,2.049-0.545 c1.984,0.039,3.222-0.002,5.329-0.068c0.716-0.021,2.134-0.152,2.254,0.41c0.186,0.877-1.85,1.002-2.323,1.436 c-1.182,1.082-0.888,4.791-0.888,7.242c0,7.357,0.173,15.633-0.068,22.203c-0.806-0.189-2.039,0.248-2.938,0 c-0.771-0.213-1.982-2.469-2.459-3.145c-4.664-6.598-9.307-13.057-13.868-19.674c-0.367-0.531-0.772-1.121-1.093-1.709 c-0.29-0.529-0.467-1.367-1.229-1.502c-0.544,0.68-0.259,1.721-0.205,2.596c0.288,4.639,0.273,9.721,0.273,14.824 c0,2.697-0.437,5.723,1.093,6.764c0.516,0.352,2.293,0.51,2.05,1.365c-0.16,0.564-1.58,0.303-2.254,0.273 c-1.861-0.078-3.242,0.068-5.192,0.068c-0.906,0-2.062,0.178-2.187-0.41c-0.187-0.877,1.269-0.842,1.845-1.162 c1.635-0.908,1.298-4.713,1.298-7.379c0-4.076,0-9.24,0-13.389c0-2.723,0.35-6.088-1.024-7.105 c-0.702-0.521-2.964-0.428-1.913-1.641c0.961-0.148,2.346-0.063,4.031,0c1.314,0.049,3.096-0.211,3.825,0.068 c0.827,0.318,1.67,1.805,2.323,2.732c3.475,4.93,6.926,9.914,10.315,14.758c1.034,1.477,2.058,2.9,3.006,4.508 C250.054,179.69,250.224,180.397,250.856,180.565z"/><path fill="#01509E" d="M392.885,157.131c0.481-0.18,1.854-0.066,2.731-0.066c0.873,0,1.791,0,2.666,0 c1.153,0,4.683-0.357,4.851,0.477c0.172,0.863-1.648,0.951-1.981,1.162c-1.505,0.949-1.229,3.391-1.229,5.875 c0,1.918,0,3.725,0,5.125c0,3.436,0.199,7.248-0.137,10.041c-0.718,5.957-4.778,8.65-11.546,8.814 c-7.019,0.168-11.812-1.719-12.774-7.652c-0.506-3.115-0.205-6.592-0.205-9.973c0-1.684,0-3.416,0-5.125 c0-2.24,0.355-5.957-0.957-6.969c-0.442-0.34-2.273-0.359-2.187-1.229c0.068-0.684,1.576-0.479,2.597-0.479c2.151,0,3.786,0,6.148,0 c1.082,0,2.505-0.229,2.527,0.545c0.021,0.73-1.011,0.721-1.298,0.82c-0.646,0.229-1.171,0.482-1.436,0.957 c-0.711,1.281-0.41,3.98-0.41,6.217c0,2.381-0.067,4.043-0.067,6.49c0,5.762-0.679,11.854,3.279,13.732 c3.683,1.746,9.403,0.754,11.066-2.254c1.36-2.463,1.093-6.873,1.093-10.521c0-4.113,0.241-7.871,0-11.545 c-0.119-1.813-0.542-2.707-2.186-3.211c-0.281-0.086-1.006-0.152-1.025-0.684C392.387,157.104,392.879,157.135,392.885,157.131z"/><path fill="#01509E" d="M436.197,157.131c0.172,2.336,0.318,5.705-0.067,7.926c-0.497,0.277-1.474,0.074-2.187,0.137 c-1.21-1.771-1.499-4.432-3.553-5.328c-1.456-0.637-3.801-0.264-5.875-0.273c-0.464,0.824-0.273,1.854-0.273,2.801 c0,4.857-0.164,10.197,0.068,15.098c0.158,3.334-0.75,7.746,1.366,9.086c0.565,0.359,2.321,0.43,2.254,1.162 c-0.065,0.713-2.017,0.41-2.801,0.41c-2.505,0-4.179,0-6.626,0c-0.997,0-2.765,0.227-2.87-0.41c-0.131-0.791,1.705-0.91,2.186-1.162 c1.923-1,1.571-4.195,1.571-7.377c0-5.564,0-10.736,0-16.533c0-1.053,0.132-2.732-0.205-3.074c-0.432-0.436-3.424-0.209-4.304-0.137 c-3.202,0.268-3.951,2.971-5.124,5.67c-0.751,0-1.503,0-2.254,0c-0.338-1.076-0.206-2.564-0.205-4.031 c0-1.404-0.202-2.982,0.273-3.961C416.968,157.006,426.798,157.036,436.197,157.131z"/><path fill="#01509E" d="M209.935,157.202c0.034-0.018-0.006-0.064,0.068-0.068c2.397-0.176,5.546,0,8.471,0 c0.938,0,2.293-0.145,2.391,0.41c0.133,0.758-1.289,0.818-1.708,1.025c-1.919,0.943-1.503,4.094-1.503,7.172 c0.001,4.529,0,8.846,0,13.459c0,3.049-0.461,6.291,1.162,7.377c0.479,0.32,2.189,0.471,2.049,1.23 c-0.12,0.652-1.885,0.41-2.665,0.41c-2.321,0-3.822,0-6.147,0c-0.959,0-2.466,0.205-2.527-0.479 c-0.061-0.67,1.206-0.752,1.844-1.094c1.702-0.908,1.436-3.793,1.436-6.83c0-2.25,0.046-4.371,0-6.285 c-0.122-5.049,0.238-8.82-0.068-12.502c-0.082-0.982-0.465-1.818-1.093-2.254c-0.447-0.313-1.994-0.422-2.049-1.025 C209.555,157.329,209.781,157.278,209.935,157.202z"/><path fill="#01509E" d="M288.293,157.131c9.542,0,19.083,0,28.625,0c0.412,2.232,0.174,5.473,0.137,7.926 c-0.544,0.352-1.583,0.117-2.323,0.068c-0.949-1.635-1.221-3.465-2.665-4.646c-1.429-1.168-4.272-1.086-6.832-0.82 c-0.367,1.938-0.205,4.242-0.205,6.559c0,4.469,0,8.727,0,13.457c0,2.617-0.243,5.693,1.229,6.764 c0.875,0.635,2.232,0.275,2.526,1.504c-0.634,0.561-1.844,0.34-2.938,0.34c-2.362,0-3.969,0-6.49,0c-0.925,0-2.689,0.205-2.801-0.41 c-0.152-0.846,1.548-0.889,2.187-1.229c1.848-0.986,1.503-3.932,1.502-7.037c0-5.559,0-10.939,0-16.738 c0-1.008,0.13-2.854-0.204-3.143c-0.478-0.412-2.019-0.158-2.802-0.137c-0.875,0.025-2.039,0.037-2.665,0.205 c-2.265,0.607-2.888,3.373-3.962,5.396c-0.681,0.074-1.912,0.209-2.391-0.137C288.155,162.594,288.023,159.483,288.293,157.131z"/><path fill="#01509E" d="M367.608,157.202c0.222,2.34,0.229,5.586,0,7.924c-0.652,0.26-1.623,0.096-2.323,0 c-1.169-2.23-1.796-5.293-5.056-5.602c-0.593-0.057-1.478,0-2.254,0c-0.608,0-1.785-0.152-2.118,0.137 c-0.336,0.293-0.205,2.125-0.205,3.143c0,5.615-0.03,10.715,0,16.396c0.017,2.967-0.321,6.395,1.572,7.447 c0.471,0.262,2.188,0.328,2.117,1.092c-0.063,0.686-1.808,0.479-2.869,0.479c-2.38,0-4.479-0.021-6.626,0.068 c-0.999,0.043-2.709,0.166-2.801-0.477c-0.119-0.834,1.796-0.91,2.322-1.23c1.395-0.848,1.436-3.025,1.436-5.67 c-0.001-7.133,0.113-14.488-0.137-21.178c-0.867-0.34-1.938-0.221-2.869-0.205c-3.613,0.055-4.585,1.051-5.739,3.688 c-0.278,0.639-0.607,1.684-1.024,1.914c-0.604,0.334-1.694,0.137-2.255-0.068c-0.229-1.684,0.029-4.031-0.067-6.08 c-0.03-0.625-0.279-1.326,0.136-1.777C348.275,157.086,358.181,157.086,367.608,157.202z"/><path fill="#01509E" d="M466.326,157.202c0.182,1.93,0.418,4.762,0,6.625c-0.605,0.146-1.471,0.033-2.187,0.068 c-1.084-1.555-1.446-3.77-3.347-4.576c-1.385-0.588-3.731-0.41-5.534-0.41c-1.037,0-5.083-0.373-5.67,0.271 c-0.328,0.361-0.205,2.088-0.205,2.939c0,2.156,0,4.141,0,6.285c0,1.027-0.193,2.086,0.342,2.73c2.301,0.02,4.558,0.191,6.49,0 c0.989-0.098,1.743-0.666,2.187-1.365c0.409-0.646,0.485-1.637,0.956-1.912c0.564-0.332,1.714,0.039,2.323-0.068 c0.038,2.883-0.043,5.65-0.068,8.471c-0.567,0.176-1.628,0.221-2.186,0c-0.704-1.24-0.878-2.555-2.323-3.074 c-1.024-0.367-2.145-0.205-3.621-0.205c-1.001,0-3.151-0.264-3.688,0.137c-0.504,0.375-0.273,2.285-0.273,3.143 c0,2.482,0,4.375,0,6.766c0,0.861-0.236,2.771,0.137,3.209c0.469,0.549,4.92,0.16,5.738,0.137c2.16-0.059,4.182,0.182,5.534-0.41 c2.172-0.949,2.363-3.57,3.348-5.533c0.75-0.152,1.645-0.123,2.323-0.066c0.175,2.375-0.159,5.387-0.479,7.719 c-7.061,0.213-14.627,0.137-22.065,0.137c-1.053,0-2.483,0.199-2.596-0.408c-0.132-0.707,0.806-0.723,1.298-0.889 c2.217-0.75,1.913-3.371,1.913-6.695c0-2.24,0-4.191,0-6.08c0-4.482,0.208-8.797,0-12.229c-0.078-1.289-0.3-2.529-1.093-3.074 c-0.728-0.5-2.325-0.244-2.051-1.57C449.31,156.997,458.442,157.131,466.326,157.202z"/></svg>