<?xml version="1.0" encoding="utf-8"?>
<!-- Generator: Adobe Illustrator 15.1.0, SVG Export Plug-In . SVG Version: 6.00 Build 0)  -->
<!DOCTYPE svg PUBLIC "-//W3C//DTD SVG 1.1//EN" "http://www.w3.org/Graphics/SVG/1.1/DTD/svg11.dtd">
<svg version="1.1" xmlns="http://www.w3.org/2000/svg" xmlns:xlink="http://www.w3.org/1999/xlink" x="0px" y="0px"
	 width="595.275px" height="127.99px" viewBox="0 0 595.275 127.99" enable-background="new 0 0 595.275 127.99"
	 xml:space="preserve">
<g id="Layer_1">
	<path d="M0,0v113.512h386.416c-0.852-0.604-1.645-1.244-2.352-1.92c-6.311-6.101-6.398-13.188-6.578-19.829V54.078h20.186v39.571
		c0,2.692,0.092,5.473,2.344,7.625c1.621,1.706,4.057,2.333,6.398,2.333c3.154,0,5.229-1.167,6.4-2.242
		c2.342-2.243,2.432-5.024,2.432-7.716V54.078h20.277v33.737c0,7.266,0,16.689-7.48,23.776c-0.715,0.67-1.504,1.31-2.354,1.92
		h30.229c-8.898-6.385-13.08-17.054-13.08-27.403c0-17.048,11.447-34.366,32.984-34.366c9.643,0,18.834,3.411,25.504,10.232
		c2.705,2.781,3.967,4.933,5.316,7.444l-16.85,8.347c-1.625-3.771-4.688-10.5-13.16-10.5c-4.416,0-7.209,2.064-8.561,3.411
		c-4.777,4.574-4.777,11.752-4.777,14.269c0,9.418,3.518,18.303,13.43,18.303c9.373,0,12.166-8.256,12.889-10.409l17.121,8.255
		c-1.623,3.05-3.154,5.921-6.217,8.972c-1.314,1.288-2.738,2.431-4.242,3.445h18.514V53.987h20.094v46.784h26.078v12.741h34.314V0H0
		z"/>
</g>
<g id="Layer_3" display="none">
	<g display="inline">
		<path fill="none" d="M304.832,109.515v-1.828h-0.533c0-4.902-4.389-5.852-4.389-5.852l-0.008-0.887l-0.465-0.781l-0.004-1.682
			l-0.643-0.809c-0.008-0.008,0.027-0.443,0.027-0.443c0,0.004,0-0.148,0-0.273H298.4c0,0.125,0,0.277,0,0.273
			c0,0,0.031,0.436,0.025,0.443l-0.643,0.809l-0.002,1.682l-0.463,0.781l-0.014,0.887c0,0-4.381,0.949-4.381,5.852h-0.537v1.828
			l6.223-1.223L304.832,109.515z"/>
		<path fill="none" d="M310.76,124.499v-1.842h-2.146v-8.721h1.482l0.307-1.57l0.047-0.383l-11.768-2.525l-11.777,2.516l0.045,0.393
			l0.307,1.57h1.26v8.721h-2.365l0.008,1.842h-0.975l0.01,1.873h26.812v-1.873H310.76z M294.227,122.657h-2.83v-8.721h2.83V122.657z
			 M299.932,122.657h-2.83v-8.721h2.83V122.657z M305.734,122.657h-2.926v-8.721h2.926V122.657z"/>
	</g>
</g>
<g id="Layer_2" display="none">
	<g display="inline">
		
			<line fill="#FFFFFF" stroke="#000000" stroke-width="0.0747" stroke-linecap="round" stroke-linejoin="round" x1="293.794" y1="107.469" x2="293.794" y2="107.344"/>
		<polyline fill="#FFFFFF" stroke="#000000" stroke-width="0.0747" stroke-linecap="round" stroke-linejoin="round" points="
			311.65,112.465 299.135,112.465 286.62,112.465 		"/>
		<path fill="#FFFFFF" stroke="#000000" stroke-width="0.0747" stroke-linecap="round" stroke-linejoin="round" d="M304.871,108.475
			"/>
		<path fill="#FFFFFF" d="M304.84,108.156v-0.209c0-0.039,0.01-0.066,0.029-0.08c0.021-0.009,0.03-0.025,0.03-0.045
			c0-0.02-0.016-0.03-0.044-0.03c-0.031,0-0.05,0.003-0.056,0.01c-0.01,0.006-0.063,0.01-0.159,0.01v-0.209
			c0-0.04,0.008-0.066,0.025-0.079c0.013-0.01,0.019-0.025,0.019-0.045c0-0.016-0.012-0.025-0.034-0.025
			c-0.023,0-0.038,0.002-0.045,0.005c-0.007,0.007-0.05,0.01-0.13,0.01v-0.125c0-0.04,0.008-0.065,0.025-0.075
			c0.017-0.013,0.024-0.029,0.024-0.045c0-0.02-0.012-0.03-0.034-0.03c-0.023,0-0.04,0.003-0.05,0.01
			c-0.007,0.003-0.048,0.005-0.125,0.005c0-0.612-0.033-1.066-0.1-1.365s-0.149-0.59-0.249-0.872
			c-0.1-0.279-0.207-0.519-0.324-0.717c-0.116-0.203-0.267-0.424-0.448-0.663c-0.186-0.24-0.354-0.434-0.503-0.583
			c-0.148-0.149-0.313-0.301-0.494-0.453c-0.182-0.149-0.309-0.245-0.377-0.284c-0.071-0.04-0.083-0.1-0.036-0.179
			c0.047-0.08,0.017-0.12-0.09-0.12s-0.188-0.018-0.248-0.054c-0.061-0.034-0.149-0.085-0.27-0.155s-0.179-0.143-0.179-0.219
			s-0.025-0.105-0.075-0.085c-0.054,0.024-0.134,0.019-0.244-0.015c-0.11-0.03-0.204-0.085-0.285-0.165
			c-0.078-0.08-0.128-0.174-0.149-0.284c-0.019-0.109-0.013-0.194,0.021-0.254c0.036-0.06,0.07-0.089,0.104-0.089
			c0.035,0,0.049-0.021,0.039-0.06c-0.01-0.04-0.08-0.098-0.209-0.174c-0.129-0.073-0.199-0.124-0.209-0.149
			c-0.011-0.024-0.016-0.062-0.016-0.115c0-0.05-0.019-0.084-0.06-0.104v-0.265v-1.086c0.033-0.06,0.042-0.1,0.025-0.119
			c-0.018-0.02-0.018-0.044,0-0.075c0.017-0.03,0.041-0.044,0.075-0.044c0.032,0,0.034-0.016,0.004-0.045
			c-0.029-0.03-0.045-0.07-0.045-0.119c0-0.05,0.021-0.095,0.06-0.135c0.04-0.04,0.061-0.089,0.061-0.149s-0.016-0.09-0.045-0.09
			c-0.03,0-0.06,0.008-0.09,0.025c-0.029,0.017-0.06,0.017-0.09,0c-0.029-0.017-0.066-0.06-0.109-0.13
			c-0.04-0.069-0.06-0.126-0.06-0.169c0-0.04-0.015-0.06-0.045-0.06c-0.029,0-0.06,0-0.09,0c-0.029,0-0.069-0.05-0.119-0.149
			s-0.075-0.165-0.075-0.194c0-0.03-0.034-0.065-0.104-0.105c-0.067-0.04-0.136-0.269-0.136-0.269s-0.064,0.229-0.134,0.269
			c-0.07,0.04-0.105,0.075-0.105,0.105c0,0.029-0.024,0.094-0.074,0.194s-0.09,0.149-0.119,0.149c-0.03,0-0.061,0-0.09,0
			c-0.03,0-0.045,0.02-0.045,0.06c0,0.043-0.02,0.1-0.059,0.169c-0.041,0.07-0.075,0.113-0.105,0.13
			c-0.033,0.017-0.065,0.017-0.095,0c-0.03-0.017-0.06-0.025-0.09-0.025c-0.03,0-0.044,0.03-0.044,0.09s0.02,0.11,0.06,0.149
			s0.06,0.084,0.06,0.135c0,0.049-0.015,0.089-0.044,0.119c-0.03,0.03-0.028,0.045,0.004,0.045c0.033,0,0.058,0.014,0.075,0.044
			c0.017,0.03,0.017,0.055,0,0.075c-0.017,0.02-0.009,0.06,0.025,0.119v1.351c-0.04,0.02-0.06,0.055-0.06,0.104
			c0,0.053-0.005,0.091-0.015,0.115c-0.01,0.025-0.08,0.076-0.208,0.149c-0.13,0.076-0.2,0.134-0.209,0.174
			c-0.01,0.04,0.003,0.06,0.04,0.06c0.033,0,0.067,0.03,0.104,0.089c0.034,0.06,0.04,0.145,0.02,0.254
			c-0.02,0.11-0.07,0.205-0.149,0.284s-0.174,0.134-0.284,0.165c-0.11,0.033-0.189,0.039-0.239,0.015
			c-0.05-0.02-0.075,0.009-0.075,0.085s-0.062,0.149-0.185,0.219c-0.12,0.07-0.209,0.121-0.269,0.155
			c-0.06,0.036-0.143,0.054-0.249,0.054c-0.106,0-0.136,0.04-0.09,0.12c0.046,0.08,0.035,0.14-0.035,0.179
			c-0.07,0.04-0.194,0.135-0.373,0.284c-0.183,0.152-0.349,0.304-0.499,0.453s-0.316,0.343-0.499,0.583
			c-0.186,0.239-0.337,0.46-0.453,0.663c-0.117,0.199-0.224,0.438-0.324,0.717c-0.1,0.282-0.183,0.573-0.249,0.872
			c-0.063,0.299-0.095,1.365-0.095,1.365c-0.08,0-0.124-0.002-0.129-0.005c-0.007-0.007-0.022-0.01-0.046-0.01
			c-0.023,0-0.034,0.01-0.034,0.03c0,0.016,0.006,0.032,0.02,0.045c0.016,0.01,0.024,0.035,0.024,0.075v0.125
			c-0.08,0-0.123-0.003-0.129-0.01c-0.007-0.003-0.021-0.005-0.044-0.005c-0.023,0-0.036,0.009-0.036,0.025
			c0,0.02,0.007,0.035,0.02,0.045c0.017,0.013,0.025,0.04,0.025,0.079v0.209c-0.096,0-0.147-0.003-0.154-0.01
			c-0.01-0.007-0.029-0.01-0.06-0.01c-0.026,0-0.04,0.01-0.04,0.03c0,0.02,0.008,0.036,0.025,0.045
			c0.021,0.014,0.03,0.041,0.03,0.08v0.209h-0.329c0,0.02,0.01,0.03,0.03,0.03c0.02,0,0.044,0.009,0.075,0.025
			c0.03,0.017,0.05,0.032,0.059,0.045c0.007,0.014,0.01,0.03,0.01,0.05s-0.003,0.03-0.01,0.03c-0.009,0-0.024,0.005-0.045,0.016
			c-0.02,0.009-0.028,0.02-0.025,0.029c0.004,0.01,0.014,0.015,0.03,0.015c0.016,0,0.042,0,0.075,0c0.03,0,0.06,0.02,0.09,0.06
			c0.03,0.04,0.045,0.07,0.045,0.089c0,0.02-0.005,0.03-0.015,0.03c-0.01,0-0.021,0.005-0.03,0.015
			c-0.01,0.01-0.015,0.02-0.015,0.03c0,0.01,0.03,0.025,0.09,0.045v0.842c-0.037,0.02-0.067,0.035-0.09,0.044
			c-0.02,0.01-0.03,0.02-0.03,0.03c0,0.01,0.01,0.015,0.03,0.015c0.02,0,0.03,0.015,0.03,0.045s-0.015,0.064-0.045,0.104
			c-0.03,0.04-0.077,0.06-0.14,0.06v1.21l11.828-0.093v-1.117c-0.06,0-0.105-0.02-0.134-0.06c-0.031-0.04-0.046-0.075-0.046-0.104
			s0.011-0.045,0.03-0.045c0.021,0,0.03-0.005,0.03-0.015c0-0.01-0.012-0.02-0.036-0.03c-0.022-0.01-0.051-0.025-0.084-0.044v-0.842
			c0.01-0.003,0.019-0.006,0.027-0.009c0.041-0.016,0.062-0.027,0.062-0.036c0-0.01-0.006-0.02-0.016-0.03
			c-0.009-0.01-0.019-0.015-0.028-0.015c-0.011,0-0.016-0.01-0.016-0.03c0-0.02,0.016-0.05,0.044-0.089
			c0.031-0.04,0.06-0.06,0.091-0.06c0.03,0,0.054,0,0.068,0c0.018,0,0.027-0.005,0.031-0.015c0.003-0.01-0.006-0.02-0.025-0.029
			c-0.02-0.01-0.032-0.016-0.04-0.016c-0.01,0-0.016-0.01-0.016-0.03s0.006-0.036,0.016-0.05c0.008-0.013,0.024-0.028,0.056-0.045
			c0.029-0.016,0.054-0.025,0.074-0.025c0.02,0,0.03-0.01,0.03-0.03H304.84z"/>
		<path fill="#FFFFFF" d="M302.479,123.477c-0.068-0.01-0.111-0.025-0.129-0.045c-0.017-0.02-0.025-0.042-0.025-0.065
			s-0.026-0.043-0.077-0.06c-0.051-0.016-0.094-0.055-0.128-0.114v-1.261v-2.885l-0.103-3.388c0.103-0.04,0.137-0.07,0.103-0.09
			s-0.061-0.048-0.078-0.085c-0.017-0.036-0.008-0.071,0.027-0.104c0.032-0.036,0.067-0.064,0.102-0.084s0.034-0.035,0-0.045
			s-0.077-0.025-0.129-0.045c-0.051-0.02-0.017-0.064,0.104-0.134s0.205-0.105,0.257-0.105s0.057-0.015,0.018-0.044
			c-0.04-0.03-0.04-0.065,0-0.105c0.039-0.04,0.054-0.075,0.042-0.104s-0.036-0.064-0.076-0.104c-0.041-0.04-0.026-0.06,0.042-0.06
			c0.069,0,0.138-0.03,0.206-0.089h-2.562c0.069,0.06,0.138,0.089,0.207,0.089c0.067,0,0.082,0.02,0.043,0.06
			c-0.041,0.04-0.065,0.075-0.078,0.104c-0.012,0.03,0.003,0.065,0.043,0.104c0.041,0.04,0.041,0.075,0,0.105
			c-0.04,0.03-0.034,0.044,0.018,0.044s0.136,0.035,0.257,0.105c0.12,0.07,0.154,0.114,0.104,0.134
			c-0.052,0.02-0.096,0.035-0.129,0.045c-0.035,0.01-0.035,0.025,0,0.045c0.033,0.02,0.067,0.048,0.103,0.084
			c0.034,0.034,0.043,0.068,0.026,0.104c-0.019,0.037-0.044,0.065-0.078,0.085s0,0.05,0.104,0.09l-0.104,3.388v2.885v1.261
			c-0.034,0.06-0.077,0.098-0.128,0.114c-0.052,0.017-0.077,0.037-0.077,0.06s-0.008,0.045-0.025,0.065s-0.062,0.035-0.128,0.045
			c-0.069,0.01-0.104,0.054-0.104,0.135h2.459C302.582,123.531,302.548,123.486,302.479,123.477z"/>
		<path fill="#FFFFFF" d="M306.883,123.477c-0.068-0.01-0.111-0.025-0.129-0.045s-0.025-0.042-0.025-0.065s-0.025-0.043-0.077-0.06
			c-0.052-0.016-0.095-0.055-0.128-0.114v-1.261v-2.885l-0.104-3.388c0.104-0.04,0.137-0.07,0.104-0.09
			c-0.035-0.02-0.061-0.048-0.078-0.085c-0.017-0.036-0.009-0.071,0.026-0.104c0.034-0.036,0.068-0.064,0.104-0.084
			c0.032-0.02,0.032-0.035,0-0.045c-0.035-0.01-0.079-0.025-0.13-0.045s-0.017-0.064,0.103-0.134
			c0.121-0.07,0.206-0.105,0.257-0.105c0.052,0,0.058-0.015,0.018-0.044c-0.04-0.03-0.04-0.065,0-0.105
			c0.04-0.04,0.055-0.075,0.044-0.104c-0.013-0.03-0.038-0.064-0.079-0.104c-0.039-0.04-0.024-0.06,0.045-0.06
			c0.067,0,0.136-0.03,0.205-0.089h-2.562c0.069,0.06,0.138,0.089,0.206,0.089c0.074,0,0.091,0.02,0.052,0.06
			c-0.04,0.04-0.066,0.075-0.078,0.104c-0.017,0.03-0.005,0.065,0.034,0.104c0.04,0.04,0.04,0.075,0,0.105
			c-0.039,0.03-0.034,0.044,0.018,0.044c0.058,0,0.146,0.035,0.267,0.105c0.119,0.07,0.153,0.114,0.102,0.134
			c-0.051,0.02-0.094,0.035-0.128,0.045s-0.034,0.025,0,0.045s0.068,0.048,0.103,0.084c0.034,0.034,0.043,0.068,0.025,0.104
			c-0.017,0.037-0.043,0.065-0.077,0.085c-0.033,0.02,0,0.05,0.104,0.09l-0.104,3.388v2.885v1.261
			c-0.033,0.06-0.076,0.098-0.128,0.114c-0.052,0.017-0.077,0.037-0.077,0.06s-0.012,0.045-0.034,0.065
			c-0.018,0.02-0.06,0.035-0.129,0.045c-0.068,0.01-0.104,0.054-0.104,0.135h2.46C306.985,123.531,306.95,123.486,306.883,123.477z"
			/>
		<path fill="#FFFFFF" d="M298.066,123.477c-0.068-0.01-0.111-0.025-0.128-0.045s-0.025-0.042-0.025-0.065s-0.026-0.043-0.077-0.06
			c-0.051-0.016-0.095-0.055-0.129-0.114v-1.261v-2.885l-0.103-3.388c0.103-0.04,0.137-0.07,0.103-0.09s-0.06-0.048-0.077-0.085
			c-0.017-0.036-0.009-0.071,0.026-0.104c0.034-0.036,0.068-0.064,0.103-0.084c0.034-0.02,0.034-0.035,0-0.045
			c-0.035-0.01-0.077-0.025-0.129-0.045c-0.051-0.02-0.017-0.064,0.103-0.134c0.12-0.07,0.206-0.105,0.257-0.105
			c0.052,0,0.057-0.015,0.017-0.044c-0.04-0.03-0.04-0.065,0-0.105c0.04-0.04,0.055-0.075,0.043-0.104
			c-0.011-0.03-0.037-0.064-0.077-0.104s-0.026-0.06,0.043-0.06c0.068,0,0.137-0.03,0.206-0.089h-2.562
			c0.068,0.06,0.137,0.089,0.206,0.089s0.083,0.02,0.042,0.06s-0.065,0.075-0.077,0.104c-0.011,0.03,0.003,0.065,0.043,0.104
			c0.04,0.04,0.04,0.075,0,0.105c-0.04,0.03-0.034,0.044,0.018,0.044c0.051,0,0.137,0.035,0.257,0.105
			c0.12,0.07,0.154,0.114,0.103,0.134s-0.094,0.035-0.128,0.045c-0.035,0.01-0.035,0.025,0,0.045
			c0.034,0.02,0.068,0.048,0.103,0.084c0.035,0.034,0.043,0.068,0.026,0.104c-0.017,0.037-0.043,0.065-0.077,0.085
			s0,0.05,0.103,0.09l-0.103,3.388v2.885v1.261c-0.034,0.06-0.077,0.098-0.128,0.114c-0.051,0.017-0.077,0.037-0.077,0.06
			s-0.009,0.045-0.025,0.065c-0.017,0.02-0.061,0.035-0.129,0.045c-0.068,0.01-0.103,0.054-0.103,0.135h2.459
			C298.169,123.531,298.135,123.486,298.066,123.477z"/>
		<path fill="#FFFFFF" d="M293.663,123.477c-0.068-0.01-0.112-0.025-0.128-0.045c-0.017-0.02-0.026-0.042-0.026-0.065
			s-0.026-0.043-0.077-0.06c-0.051-0.016-0.094-0.055-0.128-0.114v-1.261v-2.885l-0.103-3.388c0.103-0.04,0.137-0.07,0.103-0.09
			c-0.035-0.02-0.061-0.048-0.077-0.085c-0.017-0.036-0.009-0.071,0.025-0.104c0.035-0.036,0.069-0.064,0.103-0.084
			s0.034-0.035,0-0.045s-0.077-0.025-0.128-0.045s-0.017-0.064,0.103-0.134c0.12-0.07,0.206-0.105,0.257-0.105
			s0.057-0.015,0.017-0.044c-0.04-0.03-0.04-0.065,0-0.105c0.04-0.04,0.054-0.075,0.043-0.104c-0.012-0.03-0.037-0.064-0.077-0.104
			s-0.025-0.06,0.042-0.06c0.069,0,0.137-0.03,0.206-0.089h-2.562c0.069,0.06,0.137,0.089,0.206,0.089
			c0.069,0,0.083,0.02,0.043,0.06c-0.041,0.04-0.066,0.075-0.077,0.104c-0.012,0.03,0.002,0.065,0.042,0.104
			c0.041,0.04,0.041,0.075,0,0.105c-0.04,0.03-0.034,0.044,0.017,0.044s0.137,0.035,0.257,0.105s0.154,0.114,0.103,0.134
			c-0.051,0.02-0.094,0.035-0.128,0.045c-0.034,0.01-0.034,0.025,0,0.045c0.035,0.02,0.069,0.048,0.103,0.084
			c0.034,0.034,0.043,0.068,0.025,0.104c-0.017,0.037-0.042,0.065-0.077,0.085c-0.035,0.02,0,0.05,0.103,0.09l-0.103,3.388v2.885
			v1.261c-0.035,0.06-0.077,0.098-0.128,0.114c-0.052,0.017-0.077,0.037-0.077,0.06s-0.008,0.045-0.026,0.065
			c-0.017,0.02-0.06,0.035-0.128,0.045c-0.068,0.01-0.103,0.054-0.103,0.135h2.459C293.765,123.531,293.731,123.486,293.663,123.477
			z"/>
		<path fill="#FFFFFF" d="M289.259,123.477c-0.069-0.01-0.111-0.025-0.128-0.045c-0.018-0.02-0.026-0.042-0.026-0.065
			s-0.028-0.043-0.085-0.06c-0.052-0.016-0.094-0.055-0.129-0.114v-1.261v-2.885l-0.103-3.388c0.103-0.04,0.137-0.07,0.103-0.09
			c-0.034-0.02-0.06-0.048-0.077-0.085c-0.018-0.036-0.009-0.071,0.025-0.104c0.034-0.036,0.069-0.064,0.103-0.084
			s0.034-0.035,0-0.045s-0.077-0.025-0.128-0.045c-0.052-0.02-0.018-0.064,0.103-0.134c0.125-0.07,0.214-0.105,0.266-0.105
			s0.057-0.015,0.018-0.044c-0.041-0.03-0.041-0.065,0-0.105c0.039-0.04,0.054-0.075,0.042-0.104
			c-0.017-0.03-0.045-0.064-0.085-0.104c-0.035-0.04-0.017-0.06,0.051-0.06c0.069,0,0.137-0.03,0.206-0.089h-1.215h-0.882h-0.455
			h-0.01c0.069,0.06,0.137,0.089,0.206,0.089c0.068,0,0.083,0.02,0.042,0.06s-0.065,0.075-0.077,0.104
			c-0.011,0.03,0.002,0.065,0.043,0.104c0.04,0.04,0.04,0.075,0,0.105c-0.041,0.03-0.035,0.044,0.017,0.044s0.137,0.035,0.257,0.105
			s0.154,0.114,0.103,0.134s-0.094,0.035-0.129,0.045c-0.034,0.01-0.034,0.025,0,0.045c0.035,0.02,0.069,0.048,0.103,0.084
			c0.035,0.034,0.042,0.068,0.026,0.104c-0.017,0.037-0.042,0.065-0.077,0.085s0,0.05,0.103,0.09l-0.103,3.388v2.885v1.261
			c-0.035,0.06-0.077,0.098-0.128,0.114c-0.051,0.017-0.077,0.037-0.077,0.06s-0.009,0.045-0.026,0.065
			c-0.017,0.02-0.06,0.035-0.128,0.045c-0.068,0.01-0.103,0.054-0.103,0.135h2.459C289.362,123.531,289.327,123.486,289.259,123.477
			z"/>
		<path fill="#FFFFFF" d="M311.286,123.477c-0.068-0.01-0.11-0.025-0.128-0.045s-0.026-0.042-0.026-0.065s-0.025-0.043-0.077-0.06
			c-0.051-0.016-0.094-0.055-0.129-0.114v-1.261v-2.885l-0.102-3.388c0.102-0.04,0.137-0.07,0.102-0.09
			c-0.033-0.02-0.06-0.048-0.076-0.085c-0.018-0.036-0.009-0.071,0.025-0.104c0.034-0.036,0.068-0.064,0.103-0.084
			c0.035-0.02,0.035-0.035,0-0.045c-0.034-0.01-0.076-0.025-0.128-0.045s-0.018-0.064,0.104-0.134
			c0.119-0.07,0.205-0.105,0.257-0.105c0.051,0,0.057-0.015,0.017-0.044c-0.04-0.03-0.04-0.065,0-0.105
			c0.04-0.04,0.054-0.075,0.043-0.104c-0.012-0.03-0.038-0.064-0.077-0.104c-0.04-0.04-0.026-0.06,0.042-0.06
			c0.069,0,0.139-0.03,0.206-0.089h-2.553c0.067,0.06,0.137,0.089,0.206,0.089c0.066,0,0.082,0.02,0.042,0.06
			s-0.065,0.075-0.077,0.104c-0.011,0.03,0.003,0.065,0.043,0.104c0.04,0.04,0.04,0.075,0,0.105c-0.04,0.03-0.035,0.044,0.017,0.044
			s0.139,0.035,0.257,0.105c0.121,0.07,0.154,0.114,0.104,0.134c-0.052,0.02-0.094,0.035-0.128,0.045s-0.034,0.025,0,0.045
			s0.069,0.048,0.103,0.084c0.033,0.034,0.043,0.068,0.025,0.104c-0.017,0.037-0.043,0.065-0.076,0.085
			c-0.035,0.02,0,0.05,0.102,0.09l-0.102,3.388v2.885v1.261c-0.035,0.06-0.079,0.098-0.13,0.114
			c-0.051,0.017-0.076,0.037-0.076,0.06s-0.009,0.045-0.026,0.065c-0.017,0.02-0.06,0.035-0.128,0.045
			c-0.069,0.01-0.104,0.054-0.104,0.135h2.451C311.39,123.531,311.355,123.486,311.286,123.477z"/>
		<path fill="#FFFFFF" d="M312.039,124.483v-0.304l-0.06-0.24h-0.3v-0.179h-0.298v-0.05v-0.1h-0.001h-1.808h-1.431h-1.81h-1.436
			h-1.802h-1.438h-1.808h-1.43h-1.809h-1.437h-1.808h-1.43h-1.809h-1.431h-1.809l0,0v0.114v0.036h-0.299v0.179h-0.298l-0.061,0.24
			v0.304h-0.448c0,0.06,0.015,0.098,0.045,0.114c0.029,0.017,0.045,0.046,0.045,0.09c0,0.043,0.015,0.065,0.045,0.065
			c0.029,0,0.055,0.01,0.075,0.029c0.02,0.021,0.029,0.06,0.029,0.12v3.089h13.113h13.114v-3.089c0-0.06,0.01-0.1,0.028-0.12
			c0.021-0.02,0.048-0.029,0.081-0.029c0.029,0,0.044-0.022,0.044-0.065c0-0.043,0.015-0.073,0.045-0.09
			c0.029-0.017,0.045-0.054,0.045-0.114H312.039z"/>
		<path fill="#FFFFFF" d="M288.735,114.458h1.355h1.885h1.354h1.884h0.681h0.68h1.884h1.355h1.884h1.361h1.878h1.361h1.883h1.354
			h1.463h0.08c0-0.14,0.006-0.219,0.021-0.239c0.01-0.02,0.021-0.047,0.029-0.08c0.01-0.03,0.016-0.069,0.016-0.119
			s0.015-0.085,0.044-0.104c0.031-0.02,0.05-0.036,0.06-0.045c0.011-0.01,0.016-0.025,0.016-0.044c0-0.021-0.016-0.03-0.044-0.03
			c-0.031,0-0.056-0.005-0.075-0.015c-0.021-0.01-0.03-0.104-0.03-0.284c0-0.179,0.006-0.284,0.015-0.313
			c0.01-0.03,0.03-0.06,0.06-0.09c0.031-0.03,0.065-0.045,0.105-0.045c0.039,0,0.06-0.026,0.06-0.08c0-0.05,0.005-0.1,0.016-0.149
			c0.01-0.05,0.034-0.078,0.074-0.084c0.04-0.007,0.074-0.002,0.104,0.015c0.031,0.016,0.056,0.015,0.075-0.005
			c0.021-0.02,0.02-0.045-0.004-0.075c-0.024-0.03-0.024-0.064,0-0.104c0.023-0.04,0.034-0.066,0.034-0.08s0-0.043,0-0.089
			c0-0.047,0.01-0.075,0.029-0.085c0.021-0.01,0.056-0.015,0.105-0.015s0.072-0.032,0.068-0.095l-12.719-2.576l-12.719,2.576
			c-0.003,0.063,0.02,0.095,0.07,0.095c0.049,0,0.084,0.004,0.104,0.015c0.02,0.01,0.03,0.038,0.03,0.085c0,0.046,0,0.076,0,0.089
			s0.011,0.04,0.035,0.08c0.023,0.04,0.023,0.075,0,0.104c-0.023,0.03-0.024,0.055-0.004,0.075c0.02,0.02,0.044,0.021,0.074,0.005
			c0.03-0.017,0.064-0.021,0.105-0.015c0.04,0.006,0.064,0.034,0.075,0.084c0.01,0.05,0.015,0.1,0.015,0.149
			c0,0.053,0.021,0.08,0.065,0.08c0.04,0,0.075,0.015,0.104,0.045c0.03,0.03,0.05,0.06,0.06,0.09
			c0.01,0.029,0.015,0.134,0.015,0.313c0,0.18-0.01,0.274-0.03,0.284c-0.02,0.01-0.045,0.015-0.075,0.015s-0.045,0.009-0.045,0.03
			c0,0.02,0.005,0.034,0.015,0.044c0.01,0.009,0.03,0.025,0.06,0.045c0.03,0.02,0.045,0.055,0.045,0.104s0.005,0.089,0.015,0.119
			c0.01,0.033,0.021,0.06,0.03,0.08s0.015,0.099,0.015,0.239h0.648H288.735z"/>
		<path fill="#FFFFFF" stroke="#000000" stroke-width="0.084" stroke-linecap="round" stroke-linejoin="round" d="M287.162,114.458"
			/>
	</g>
</g>
<g id="Layer_4">
	<g>
		<path fill="#FFFFFF" d="M367.262,68.296c-0.039-0.008-10.875-2.336-10.875-2.336s-10.85,2.332-10.871,2.336
			c-0.059,0.012-0.039,0.062-0.039,0.062l0.15,0.556l0.031-0.001l-0.004,0.001c0,0,0.168-0.021,0.266,0.134l0.162,0.894
			c0,0,0.004,0.062,0.068,0.062c0.066,0,0.393,0,0.393,0h19.689c0,0,0.342,0,0.396,0s0.061-0.046,0.061-0.046l0.162-0.894
			c0.094-0.175,0.275-0.151,0.275-0.151l-0.004-0.001l0.027,0.001l0.15-0.556C367.301,68.358,367.322,68.308,367.262,68.296z"/>
		<path fill="#FFFFFF" d="M366.125,70.292c0.012,0,0.023-0.009,0.023-0.024V69.99c0-0.014-0.012-0.002-0.023-0.002h-1.652
			c-0.012,0-0.025-0.012-0.025,0.002v0.277c0,0.015,0.014,0.024,0.025,0.024l0.07,0.001c0.033,0,0.035,0.033,0.035,0.065
			c0,0.042,0.018,0.256,0.168,0.386c0.021,0.019,0.016,0.071-0.031,0.071c-0.004,0-0.047,0-0.051,0
			c-0.037,0-0.039,0.025-0.027,0.045c0.014,0.025,0.018,0.098,0.018,0.132c0,0.035,0,0.096,0,0.121c0,0.022,0.002,0.04,0.023,0.04
			c0.002,0,0.023,0,0.025,0c0,0,0.016-0.002,0.016,0.018c0,0.016,0,0.024,0,0.024v6.076c-0.018,0.019-0.082,0.084-0.088,0.088
			c-0.004,0.005-0.01,0.013-0.01,0.022v0.103c0,0.007-0.002,0.018-0.008,0.022c-0.004,0.005-0.014,0.007-0.023,0.007h-0.076
			c-0.014,0-0.025,0.012-0.025,0.025c0,0,0,0.169,0,0.176h1.619c0-0.006,0-0.176,0-0.176c0-0.013-0.012-0.025-0.023-0.025h-0.076
			c-0.01,0-0.018-0.002-0.023-0.007c-0.004-0.004-0.008-0.015-0.008-0.022v-0.103c0-0.008-0.002-0.014-0.01-0.021
			c-0.01-0.008-0.062-0.062-0.088-0.089v-6.076c0,0,0-0.008,0-0.024c0-0.02,0.016-0.018,0.016-0.018c0.002,0,0.021,0,0.023,0
			c0.021,0,0.025-0.018,0.025-0.04c0-0.024,0-0.086,0-0.121c0-0.034,0.006-0.107,0.018-0.132c0.014-0.02,0.01-0.045-0.029-0.045
			c-0.002,0-0.047,0-0.049,0c-0.047,0-0.053-0.053-0.033-0.071c0.152-0.124,0.168-0.34,0.168-0.381c0-0.037-0.002-0.07,0.039-0.07
			L366.125,70.292z"/>
		<path fill="#FFFFFF" d="M362.562,70.292c0.012,0,0.023-0.009,0.023-0.024V69.99c0-0.014-0.012-0.002-0.023-0.002h-1.654
			c-0.014,0-0.023-0.012-0.023,0.002v0.277c0,0.015,0.01,0.024,0.023,0.024l0.072,0.001c0.031,0,0.033,0.033,0.033,0.065
			c0,0.042,0.02,0.256,0.168,0.386c0.021,0.019,0.014,0.071-0.029,0.071c-0.004,0-0.049,0-0.051,0c-0.039,0-0.043,0.025-0.031,0.045
			c0.016,0.025,0.018,0.098,0.018,0.132c0,0.035,0,0.096,0,0.121c0,0.022,0.004,0.04,0.025,0.04h0.023c0,0,0.018-0.002,0.018,0.018
			c0,0.016,0.002,0.024,0.002,0.024v6.076c-0.02,0.019-0.086,0.084-0.09,0.088c-0.006,0.005-0.01,0.013-0.01,0.022v0.103
			c0,0.007,0,0.018-0.008,0.022c-0.004,0.005-0.012,0.007-0.021,0.007h-0.078c-0.012,0-0.021,0.012-0.021,0.025c0,0,0,0.169,0,0.176
			h1.615c0-0.006,0-0.176,0-0.176c0-0.013-0.012-0.025-0.023-0.025h-0.076c-0.01,0-0.02-0.002-0.023-0.007
			c-0.006-0.004-0.008-0.015-0.008-0.022v-0.103c0-0.008-0.002-0.014-0.01-0.021c-0.008-0.008-0.061-0.062-0.088-0.089v-6.076
			c0,0,0-0.008,0-0.024c0-0.02,0.018-0.018,0.018-0.018c0.002,0,0.02,0,0.021,0c0.021,0,0.023-0.018,0.023-0.04
			c0-0.024,0-0.086,0-0.121c0-0.034,0.008-0.107,0.021-0.132c0.01-0.02,0.006-0.045-0.031-0.045c-0.002,0-0.045,0-0.049,0
			c-0.047,0-0.053-0.053-0.031-0.071c0.152-0.124,0.168-0.34,0.168-0.381c0-0.037-0.002-0.07,0.037-0.07L362.562,70.292z"/>
		<path fill="#FFFFFF" d="M358.998,70.292c0.014,0,0.021-0.009,0.021-0.024V69.99c0-0.014-0.008-0.002-0.021-0.002h-1.654
			c-0.014,0-0.023-0.012-0.023,0.002v0.277c0,0.015,0.01,0.024,0.023,0.024l0.072,0.001c0.031,0,0.033,0.033,0.033,0.065
			c0,0.042,0.02,0.256,0.17,0.386c0.02,0.019,0.012,0.071-0.031,0.071c-0.004,0-0.049,0-0.051,0c-0.039,0-0.041,0.025-0.029,0.045
			c0.014,0.025,0.018,0.098,0.018,0.132c0,0.035,0,0.096,0,0.121c0,0.022,0.002,0.04,0.021,0.04c0.002,0,0.025,0,0.027,0
			c0,0,0.018-0.002,0.018,0.018c0,0.016,0,0.024,0,0.024v6.076c-0.018,0.019-0.084,0.084-0.09,0.088
			c-0.006,0.005-0.01,0.013-0.01,0.022v0.103c0,0.007-0.002,0.018-0.006,0.022c-0.006,0.005-0.016,0.007-0.023,0.007h-0.076
			c-0.012,0-0.023,0.012-0.023,0.025c0,0,0,0.169,0,0.176h1.615c0-0.006,0-0.176,0-0.176c0-0.013-0.012-0.025-0.023-0.025h-0.076
			c-0.01,0-0.02-0.002-0.023-0.007c-0.004-0.004-0.008-0.015-0.008-0.022v-0.103c0-0.008-0.002-0.014-0.008-0.021
			c-0.01-0.008-0.061-0.062-0.09-0.089v-6.076c0,0,0-0.008,0-0.024c0-0.02,0.018-0.018,0.018-0.018c0.002,0,0.02,0,0.02,0
			c0.025,0,0.027-0.018,0.027-0.04c0-0.024,0-0.086,0-0.121c0-0.034,0.006-0.107,0.02-0.132c0.01-0.02,0.01-0.045-0.029-0.045
			c-0.002,0-0.047,0-0.051,0c-0.047,0-0.053-0.053-0.029-0.071c0.15-0.124,0.164-0.34,0.164-0.381c0-0.037,0-0.07,0.039-0.07
			L358.998,70.292z"/>
		<path fill="#FFFFFF" d="M355.434,70.292c0.014,0,0.023-0.009,0.023-0.024V69.99c0-0.014-0.01-0.002-0.023-0.002h-1.654
			c-0.014,0-0.021-0.012-0.021,0.002v0.277c0,0.015,0.008,0.024,0.021,0.024l0.07,0.001c0.033,0,0.035,0.033,0.035,0.065
			c0,0.042,0.02,0.256,0.17,0.386c0.021,0.019,0.012,0.071-0.031,0.071c-0.004,0-0.049,0-0.051,0c-0.039,0-0.041,0.025-0.029,0.045
			c0.014,0.025,0.018,0.098,0.018,0.132c0,0.035,0,0.096,0,0.121c0,0.022,0.002,0.04,0.025,0.04c0,0,0.021,0,0.023,0
			c0,0,0.018-0.002,0.018,0.018c0,0.016,0,0.024,0,0.024v6.076c-0.018,0.019-0.084,0.084-0.09,0.088
			c-0.004,0.005-0.008,0.013-0.008,0.022v0.103c0,0.007-0.002,0.018-0.008,0.022c-0.006,0.005-0.016,0.007-0.023,0.007h-0.076
			c-0.014,0-0.023,0.012-0.023,0.025c0,0,0,0.169,0,0.176h1.615c0-0.006,0-0.176,0-0.176c0-0.013-0.01-0.025-0.023-0.025h-0.076
			c-0.01,0-0.018-0.002-0.023-0.007c-0.004-0.004-0.006-0.015-0.006-0.022v-0.103c0-0.008-0.002-0.014-0.01-0.021
			c-0.01-0.008-0.062-0.062-0.088-0.089v-6.076c0,0-0.002-0.008-0.002-0.024c0-0.02,0.018-0.018,0.018-0.018
			c0.002,0,0.021,0,0.023,0c0.02,0,0.023-0.018,0.023-0.04c0-0.024,0-0.086,0-0.121c0-0.034,0.006-0.107,0.02-0.132
			c0.012-0.02,0.008-0.045-0.029-0.045c-0.004,0-0.047,0-0.049,0c-0.049,0-0.055-0.053-0.033-0.071
			c0.152-0.124,0.168-0.34,0.168-0.381c0-0.037-0.002-0.07,0.037-0.07L355.434,70.292z"/>
		<path fill="#FFFFFF" d="M351.869,70.292c0.014,0,0.023-0.009,0.023-0.024V69.99c0-0.014-0.01-0.002-0.023-0.002h-1.652
			c-0.014,0-0.023-0.012-0.023,0.002v0.277c0,0.015,0.01,0.024,0.023,0.024l0.068,0.001c0.035,0,0.037,0.033,0.037,0.065
			c0,0.042,0.02,0.256,0.17,0.386c0.02,0.019,0.012,0.071-0.033,0.071c-0.002,0-0.049,0-0.051,0c-0.039,0-0.041,0.025-0.029,0.045
			c0.014,0.025,0.018,0.098,0.018,0.132c0,0.035,0,0.096,0,0.121c0,0.022,0.002,0.04,0.025,0.04c0.002,0,0.021,0,0.023,0
			c0,0,0.018-0.002,0.018,0.018c0,0.016,0,0.024,0,0.024v6.076c-0.018,0.019-0.084,0.084-0.088,0.088
			c-0.006,0.005-0.01,0.013-0.01,0.022v0.103c0,0.007-0.002,0.018-0.008,0.022c-0.004,0.005-0.014,0.007-0.023,0.007h-0.074
			c-0.014,0-0.025,0.012-0.025,0.025c0,0,0,0.169,0,0.176h1.615c0-0.006,0-0.176,0-0.176c0-0.013-0.01-0.025-0.021-0.025h-0.078
			c-0.008,0-0.016-0.002-0.021-0.007c-0.006-0.004-0.008-0.015-0.008-0.022v-0.103c0-0.008-0.002-0.014-0.01-0.021
			c-0.008-0.008-0.062-0.062-0.09-0.089v-6.076c0,0,0-0.008,0-0.024c0-0.02,0.018-0.018,0.018-0.018c0.002,0,0.021,0,0.021,0
			c0.023,0,0.025-0.018,0.025-0.04c0-0.024,0-0.086,0-0.121c0-0.034,0.006-0.107,0.02-0.132c0.014-0.02,0.01-0.045-0.029-0.045
			c-0.002,0-0.047,0-0.051,0c-0.047,0-0.053-0.053-0.031-0.071c0.152-0.124,0.168-0.34,0.168-0.381c0-0.037-0.002-0.07,0.037-0.07
			L351.869,70.292z"/>
		<path fill="#FFFFFF" d="M348.305,70.292c0.014,0,0.025-0.009,0.025-0.024V69.99c0-0.014-0.012-0.002-0.025-0.002h-1.652
			c-0.014,0-0.023-0.012-0.023,0.002v0.277c0,0.015,0.01,0.024,0.023,0.024l0.07,0.001c0.033,0,0.035,0.033,0.035,0.065
			c0,0.042,0.02,0.256,0.17,0.386c0.02,0.019,0.012,0.071-0.031,0.071c-0.004,0-0.049,0-0.053,0c-0.037,0-0.039,0.025-0.027,0.045
			c0.014,0.025,0.016,0.098,0.016,0.132c0,0.035,0,0.096,0,0.121c0,0.022,0.002,0.04,0.025,0.04h0.023c0,0,0.018-0.002,0.018,0.018
			c0,0.016,0,0.024,0,0.024v6.076c-0.018,0.019-0.082,0.084-0.088,0.088c-0.006,0.005-0.01,0.013-0.01,0.022v0.103
			c0,0.007-0.002,0.018-0.006,0.022c-0.006,0.005-0.016,0.007-0.023,0.007h-0.076c-0.014,0-0.025,0.012-0.025,0.025
			c0,0,0,0.169,0,0.176h1.617c0-0.006,0-0.176,0-0.176c0-0.013-0.01-0.025-0.023-0.025h-0.078c-0.008,0-0.018-0.002-0.021-0.007
			c-0.006-0.004-0.008-0.015-0.008-0.022v-0.103c0-0.008-0.002-0.014-0.008-0.021c-0.01-0.008-0.064-0.062-0.09-0.089v-6.076
			c0,0,0-0.008,0-0.024c0-0.02,0.016-0.018,0.016-0.018c0.002,0,0.021,0,0.021,0c0.023,0,0.027-0.018,0.027-0.04
			c0-0.024,0-0.086,0-0.121c0-0.034,0.004-0.107,0.02-0.132c0.01-0.02,0.008-0.045-0.029-0.045c-0.004,0-0.047,0-0.051,0
			c-0.049,0-0.053-0.053-0.031-0.071c0.15-0.124,0.166-0.34,0.166-0.381c0-0.037-0.002-0.07,0.039-0.07L348.305,70.292z"/>
		<g>
			<path fill="#FFFFFF" d="M361.447,63.856c0,0-0.135,0-0.17,0c-0.045,0-0.043-0.037-0.043-0.037s0-0.146,0-0.183
				c0-0.047-0.047-0.047-0.047-0.047s-0.125,0-0.166,0c-0.047,0-0.045-0.042-0.045-0.042v-0.169c0,0,0-0.037-0.043-0.037
				c-0.016,0-0.072,0-0.1,0c-0.035,0-0.072-0.029-0.074-0.078c-0.006-0.231,0.074-1.861-0.787-3.042
				c-0.678-1.014-1.611-1.528-2.127-1.768c-0.01-0.22-0.322-0.303-0.459-0.351c-0.072-0.024-0.135-0.053-0.135-0.117
				c0-0.003-0.002-0.072-0.002-0.075c0-0.068,0.062-0.096,0.156-0.093c0.029,0.001,0.051-0.024,0.051-0.043v-0.198
				c0-0.028-0.025-0.06-0.066-0.06c-0.068,0-0.146,0-0.186,0c-0.045,0-0.066-0.041-0.066-0.065c0-0.04,0-0.022,0-0.099
				c0-0.058-0.045-0.091-0.08-0.108v-1.217c0-0.041,0.031-0.036,0.059-0.036c0.004,0,0.01,0,0.014-0.001h0.004
				c0.016,0,0.029-0.014,0.029-0.03v-0.116c0-0.017-0.014-0.029-0.029-0.029h-0.055c-0.02-0.009-0.033-0.034-0.033-0.089
				c0-0.056,0.018-0.083,0.041-0.087h0.047c0.016,0,0.029-0.013,0.029-0.029v-0.118c0-0.015-0.014-0.028-0.029-0.028h-0.062
				c-0.027-0.004-0.047-0.016-0.074-0.037c-0.207-0.164-0.416-0.4-0.416-0.436c0-0.019,0-0.021,0-0.044
				c0-0.025-0.025-0.074-0.082-0.074c-0.055,0-0.047-0.057-0.018-0.057c0.02,0,0.023-0.005,0.023-0.033c0-0.017,0-0.047,0-0.079
				c0-0.035-0.105-0.182-0.105-0.182h-0.008c0,0-0.107,0.146-0.107,0.182c0,0.032,0,0.062,0,0.079c0,0.027,0.008,0.033,0.025,0.033
				c0.029,0,0.037,0.057-0.016,0.057c-0.057,0-0.082,0.049-0.082,0.074c0,0.023-0.002,0.025-0.002,0.044
				c0,0.035-0.209,0.271-0.416,0.436c-0.027,0.021-0.047,0.033-0.074,0.037h-0.062c-0.016,0-0.029,0.013-0.029,0.028v0.118
				c0,0.016,0.014,0.029,0.029,0.029h0.049c0.021,0.005,0.039,0.031,0.039,0.087c0,0.055-0.014,0.08-0.033,0.089h-0.055
				c-0.016,0-0.029,0.012-0.029,0.029v0.116c0,0.016,0.014,0.03,0.029,0.03h0.004c0.006,0.001,0.01,0.001,0.014,0.001
				c0.027,0,0.061-0.005,0.061,0.036v1.217c-0.035,0.017-0.082,0.05-0.082,0.108c0,0.077,0,0.059,0,0.099
				c0,0.025-0.021,0.065-0.066,0.065c-0.039,0-0.119,0-0.186,0c-0.041,0-0.068,0.032-0.068,0.06v0.198
				c0,0.019,0.023,0.044,0.051,0.043c0.094-0.003,0.158,0.024,0.158,0.093c0,0.003-0.002,0.072-0.002,0.075
				c0,0.064-0.064,0.093-0.135,0.117c-0.137,0.047-0.449,0.131-0.457,0.351c-0.518,0.24-1.453,0.754-2.127,1.768
				c-0.863,1.18-0.781,2.811-0.789,3.042c-0.002,0.048-0.037,0.078-0.074,0.078c-0.025,0-0.084,0-0.1,0
				c-0.043,0-0.043,0.037-0.043,0.037v0.169c0,0,0.002,0.042-0.043,0.042c-0.043,0-0.17,0-0.17,0s-0.043,0-0.043,0.047
				c0,0.037,0,0.183,0,0.183s0.002,0.037-0.047,0.037c-0.033,0-0.17,0-0.17,0s-0.047,0-0.047,0.048c0,0.028,0,0.137,0,0.197
				c0,0.022,0.014,0.026,0.029,0.028c0.051,0.007,0.154,0.053,0.154,0.166c0,0.192,0.117,0.211,0.164,0.211v0.709
				c0,0.166-0.129,0.23-0.201,0.248c-0.016,0.002-0.035,0.02-0.035,0.04c0,0.019,0,0.73,0,0.73l4.984-1.1h0.008l4.984,1.1
				c0,0,0-0.712,0-0.73c0-0.02-0.021-0.037-0.037-0.04c-0.072-0.018-0.199-0.083-0.199-0.248v-0.709
				c0.047,0,0.164-0.019,0.164-0.211c0-0.112,0.104-0.159,0.152-0.166c0.018-0.002,0.031-0.006,0.031-0.028c0-0.06,0-0.169,0-0.197
				C361.496,63.856,361.447,63.856,361.447,63.856z"/>
		</g>
		<polygon fill="#FFFFFF" points="366.961,79.788 366.961,78.331 366.109,78.331 366.109,77.694 346.67,77.694 346.67,78.33 
			345.816,78.33 345.816,79.786 344.959,79.786 344.959,81.257 367.818,81.259 367.818,79.788 		"/>
	</g>
</g>
</svg>
